<?xml version="1.0" encoding="utf-8"?>
<!-- Generator: Adobe Illustrator 24.3.0, SVG Export Plug-In . SVG Version: 6.00 Build 0)  -->
<svg version="1.1" id="Layer_1" xmlns="http://www.w3.org/2000/svg" xmlns:xlink="http://www.w3.org/1999/xlink" x="0px" y="0px"
	 width="208px" height="30px" viewBox="0 0 208 30" style="enable-background:new 0 0 208 30;" xml:space="preserve">
<style type="text/css">
	.st0{fill:#FFFFFF;}
</style>
<path class="st0" d="M5.1,25.2c0,1,0.1,1.7,0.4,2.1c0.3,0.4,0.7,0.7,1.4,0.7l1,0.1c0.1,0,0.2,0,0.3,0.1c0,0.1,0.1,0.2,0.1,0.4v0.6
	c0,0.2,0,0.3-0.1,0.4c-0.1,0.1-0.2,0.1-0.3,0.1c-1.4-0.2-2.7-0.3-3.7-0.3c-1,0-2.3,0.1-3.7,0.3c-0.2,0-0.3,0-0.3-0.1
	C0,29.5,0,29.4,0,29.2v-0.6c0-0.2,0-0.3,0.1-0.4c0-0.1,0.2-0.1,0.3-0.1L1.5,28c0.7,0,1.3-0.3,1.6-0.7c0.3-0.4,0.5-1.2,0.5-2.2L4,6.8
	c0-1.4-0.1-2.3-0.5-2.9s-1-0.9-1.9-1l-1-0.1c-0.2,0-0.3,0-0.4-0.1C0.2,2.6,0.2,2.5,0.2,2.3V1.6c0-0.2,0-0.3,0.1-0.4
	c0-0.1,0.2-0.1,0.3-0.1c1.1,0.2,2.1,0.3,2.9,0.3c0.8,0,1.8-0.1,2.9-0.3c0.1,0,0.2,0,0.2,0.1c0,0,0.1,0.1,0.1,0.3l7.6,22.2h0
	l7.3-21.9c0.1-0.2,0.2-0.4,0.2-0.4c0.1-0.1,0.2-0.1,0.3-0.1c1.2,0.2,2.2,0.3,3,0.3c0.9,0,1.9-0.1,3-0.3c0.1,0,0.3,0,0.3,0.1
	c0,0.1,0.1,0.2,0.1,0.4v0.6c0,0.2,0,0.3-0.1,0.3c0,0.1-0.2,0.1-0.3,0.1L27,2.8c-0.7,0.1-1.2,0.3-1.5,0.7c-0.3,0.4-0.4,1-0.4,1.8
	l0.5,20.1c0,0.8,0.2,1.4,0.5,1.8c0.3,0.4,0.8,0.6,1.5,0.7l1,0.1c0.1,0,0.3,0.1,0.3,0.1c0,0.1,0.1,0.2,0.1,0.3v0.6
	c0,0.2,0,0.3-0.1,0.4c0,0.1-0.2,0.1-0.3,0.1c-1.7-0.2-3.2-0.3-4.5-0.3c-1.3,0-2.8,0.1-4.5,0.3c-0.2,0-0.3,0-0.3-0.1
	c0-0.1-0.1-0.2-0.1-0.4v-0.6c0-0.2,0-0.3,0.1-0.4c0-0.1,0.2-0.1,0.3-0.1l1.1-0.1c0.7,0,1.3-0.2,1.5-0.6c0.3-0.4,0.4-1,0.4-1.9
	L22.1,5.1h0l-8,24.1c-0.1,0.4-0.2,0.6-0.3,0.7c-0.1,0.1-0.2,0.1-0.3,0.1h0c-0.1,0-0.2,0-0.3-0.1c0-0.1-0.1-0.3-0.3-0.7L5.5,7.4h0
	L5.1,25.2z M35,25.8c-0.2,0.8-0.5,1.4-0.9,1.7c-0.4,0.4-0.9,0.6-1.5,0.8l-0.9,0.1c-0.1,0-0.2,0.1-0.3,0.1c0,0.1-0.1,0.2-0.1,0.3v0.6
	c0,0.2,0,0.3,0.1,0.4c0,0.1,0.2,0.1,0.3,0.1c1.4-0.2,2.6-0.3,3.6-0.3c1,0,2.2,0.1,3.6,0.3c0.2,0,0.3,0,0.3-0.1
	c0-0.1,0.1-0.2,0.1-0.4v-0.6c0-0.2,0-0.3-0.1-0.3c-0.1-0.1-0.2-0.1-0.3-0.1l-1.1-0.1c-0.7-0.2-1.1-0.5-1.3-1
	c-0.2-0.5-0.1-1.3,0.2-2.3l1.8-6.3h7.8l2.2,7.1c0.2,0.8,0.3,1.4,0.1,1.7c-0.1,0.4-0.5,0.6-1.1,0.8l-0.9,0.1c-0.2,0-0.3,0.1-0.3,0.2
	c-0.1,0.1-0.1,0.2-0.1,0.3v0.6c0,0.2,0,0.3,0.1,0.4c0.1,0.1,0.2,0.1,0.3,0.1c1.6-0.2,3-0.3,4.1-0.3c1.2,0,2.5,0.1,4.1,0.3
	c0.2,0,0.3,0,0.4-0.1c0.1-0.1,0.1-0.2,0.1-0.4v-0.6c0-0.2,0-0.3-0.1-0.4c-0.1-0.1-0.2-0.1-0.4-0.1l-0.8-0.1c-0.5,0-1-0.3-1.3-0.6
	c-0.3-0.4-0.7-1-1-1.9L43.9,1.6c-0.1-0.2-0.1-0.3-0.2-0.3c0,0-0.1,0-0.3,0.1L42.7,2l-1,0.7L35,25.8 M42.2,5.5L42.2,5.5l3.6,11.6H39
	L42.2,5.5z M61.2,25.8c0,0.8-0.1,1.4-0.4,1.8c-0.3,0.4-0.8,0.6-1.6,0.8l-1.1,0.1c-0.1,0-0.3,0.1-0.3,0.1c-0.1,0.1-0.1,0.2-0.1,0.3
	v0.6c0,0.2,0,0.3,0.1,0.4C57.9,30,58,30,58.1,30c1.8-0.2,3.3-0.3,4.6-0.3c1.3,0,2.8,0.1,4.6,0.3c0.1,0,0.3,0,0.3-0.1
	c0-0.1,0.1-0.2,0.1-0.4v-0.7c0-0.2,0-0.3-0.1-0.4c0-0.1-0.2-0.1-0.3-0.1l-1.1-0.1c-0.7,0-1.3-0.2-1.6-0.6c-0.3-0.4-0.4-1-0.4-1.9
	v-10h0.4c1.2,0,2.1,0.3,2.7,0.8c0.6,0.5,1.4,1.7,2.5,3.7l4.4,8.1c0.4,0.6,0.7,1.1,0.9,1.3c0.3,0.2,0.6,0.4,0.9,0.4
	c0.3,0,0.6,0,0.9-0.1c0.2-0.1,0.5-0.1,0.9-0.1l2.2,0.2c0.2,0,0.3,0,0.3-0.1c0-0.1,0.1-0.2,0.1-0.4v-0.6c0-0.2,0-0.3-0.1-0.4
	c-0.1-0.1-0.2-0.1-0.3-0.1l-0.8-0.1c-0.5-0.1-1-0.3-1.4-0.6c-0.4-0.4-0.9-1-1.3-1.9L72.1,18c-0.8-1.4-1.7-2.5-2.8-3.1
	c1.2-0.3,2.2-0.9,3.1-1.6c1.8-1.4,2.7-3.1,2.7-5.2c0-1.9-0.7-3.5-2.1-4.8c-1.4-1.2-3.1-1.9-5.3-1.9l-5,0.2h-0.2h-1.8l-2.8-0.3
	c-0.2,0-0.3,0-0.3,0.1c-0.1,0.1-0.1,0.2-0.1,0.4v0.6c0,0.2,0,0.3,0.1,0.4c0.1,0.1,0.2,0.1,0.3,0.1h1.1c0.7,0.1,1.3,0.3,1.6,0.7
	c0.3,0.4,0.4,1,0.4,1.9L61.2,25.8 M64.2,6.4c0-1.2,0.2-1.9,0.5-2.4c0.3-0.4,1-0.6,1.9-0.6c1.6,0.1,2.8,0.5,3.7,1.4
	c1,0.9,1.5,2.2,1.5,3.9c0,1.6-0.5,2.9-1.6,3.9c-1.1,1-2.5,1.4-4.4,1.4c-0.6,0-1.1-0.1-1.6-0.2L64.2,6.4L64.2,6.4z M85.7,25.8
	c-0.2,0.8-0.5,1.4-0.9,1.7c-0.4,0.4-0.9,0.6-1.5,0.8l-0.9,0.1c-0.1,0-0.2,0.1-0.3,0.1c0,0.1-0.1,0.2-0.1,0.3v0.6
	c0,0.2,0,0.3,0.1,0.4c0,0.1,0.2,0.1,0.3,0.1c1.4-0.2,2.6-0.3,3.6-0.3s2.2,0.1,3.6,0.3c0.2,0,0.3,0,0.3-0.1c0-0.1,0.1-0.2,0.1-0.4
	v-0.6c0-0.2,0-0.3-0.1-0.3c-0.1-0.1-0.2-0.1-0.3-0.1l-1.1-0.1c-0.7-0.2-1.1-0.5-1.3-1c-0.2-0.5-0.1-1.3,0.2-2.3l1.8-6.3H97l2.2,7.1
	c0.2,0.8,0.3,1.4,0.1,1.7c-0.1,0.4-0.5,0.6-1.1,0.8l-0.9,0.1c-0.2,0-0.3,0.1-0.3,0.2C97,28.6,97,28.7,97,28.9v0.6
	c0,0.2,0,0.3,0.1,0.4s0.2,0.1,0.3,0.1c1.6-0.2,3-0.3,4.1-0.3c1.2,0,2.5,0.1,4.1,0.3c0.2,0,0.3,0,0.4-0.1c0.1-0.1,0.1-0.2,0.1-0.4
	v-0.6c0-0.2,0-0.3-0.1-0.4c-0.1-0.1-0.2-0.1-0.4-0.1l-0.8-0.1c-0.5,0-1-0.3-1.3-0.6c-0.3-0.4-0.7-1-1-1.9L94.6,1.6
	c-0.1-0.2-0.1-0.3-0.2-0.3c0,0-0.1,0-0.3,0.1L93.4,2l-1,0.7L85.7,25.8 M92.9,5.5L92.9,5.5l3.6,11.6h-6.8L92.9,5.5z M112.5,25.8
	c0,0.8-0.1,1.4-0.4,1.8c-0.3,0.4-0.8,0.6-1.5,0.7l-1.1,0.1c-0.2,0-0.3,0.1-0.3,0.1c0,0.1-0.1,0.2-0.1,0.3v0.6c0,0.2,0,0.3,0.1,0.4
	c0,0.1,0.2,0.1,0.3,0.1c1.7-0.2,3.2-0.3,4.5-0.3c1.3,0,2.7,0.1,4.5,0.3c0.1,0,0.3,0,0.3-0.1c0-0.1,0.1-0.2,0.1-0.4v-0.7
	c0-0.2,0-0.3-0.1-0.3c0-0.1-0.1-0.1-0.3-0.1l-1.1-0.1c-0.7-0.1-1.2-0.3-1.5-0.7c-0.3-0.4-0.4-1-0.4-1.8V3.5h5.1
	c0.7,0,1.2,0.3,1.5,0.9c0.3,0.6,0.4,1.6,0.3,3c0,0.2,0,0.3,0.1,0.3c0.1,0.1,0.2,0.1,0.3,0.1h0.5c0.1,0,0.2,0,0.3-0.1
	c0-0.1,0.1-0.2,0.1-0.3c0.1-1.3,0.2-2.5,0.2-3.4c0.1-0.9,0.2-2.1,0.5-3.4c0-0.2,0-0.3-0.1-0.4S124,0,123.8,0h-0.6
	c-0.1,0-0.2,0-0.2,0.1s-0.1,0.2-0.2,0.4h-0.1c-0.2,0.5-0.5,0.9-1.1,1c-0.6,0.2-1.6,0.3-3.1,0.3h-10.5c-1.1,0-1.9-0.1-2.3-0.3
	c-0.4-0.2-0.7-0.5-0.8-1H105c0-0.2-0.1-0.3-0.2-0.4C104.8,0,104.7,0,104.5,0H104c-0.2,0-0.3,0-0.3,0.1c-0.1,0.1-0.1,0.2-0.1,0.4
	c0,1.3,0,2.4-0.1,3.4c0,0.9-0.1,2.1-0.2,3.4c0,0.2,0,0.3,0.1,0.3c0,0.1,0.1,0.1,0.3,0.1h0.5c0.1,0,0.2,0,0.2-0.1
	c0.1-0.1,0.1-0.2,0.1-0.3c0.2-1.4,0.5-2.4,1.1-3s1.4-0.9,2.6-0.9h4.4L112.5,25.8 M130.2,25.8c0,0.8-0.1,1.4-0.4,1.8
	c-0.3,0.4-0.8,0.6-1.6,0.7l-1.1,0.1c-0.2,0-0.3,0.1-0.3,0.1c0,0.1-0.1,0.2-0.1,0.3v0.6c0,0.2,0,0.3,0.1,0.4c0,0.1,0.2,0.1,0.3,0.1
	c1.8-0.2,3.3-0.3,4.6-0.3c1.3,0,2.8,0.1,4.6,0.3c0.1,0,0.3,0,0.3-0.1c0-0.1,0.1-0.2,0.1-0.4v-0.7c0-0.2,0-0.3-0.1-0.4
	c0-0.1-0.2-0.1-0.3-0.1l-1.1-0.1c-0.8,0-1.3-0.2-1.6-0.6c-0.3-0.4-0.4-1-0.4-1.9V15.5h14v10.3c0,0.9-0.1,1.5-0.4,1.9
	c-0.3,0.4-0.8,0.6-1.6,0.6l-1.1,0.1c-0.1,0-0.3,0-0.3,0.1c0,0.1-0.1,0.2-0.1,0.4v0.6c0,0.2,0,0.3,0.1,0.4c0,0.1,0.2,0.1,0.3,0.1
	c1.8-0.2,3.3-0.3,4.6-0.3c1.3,0,2.8,0.1,4.6,0.3c0.1,0,0.3,0,0.3-0.1c0-0.1,0.1-0.2,0.1-0.4v-0.7c0-0.2,0-0.3-0.1-0.3
	c0-0.1-0.2-0.1-0.3-0.1l-1.1-0.1c-0.7-0.1-1.3-0.3-1.6-0.7c-0.3-0.4-0.4-1-0.4-1.8V5.7c0-0.8,0.1-1.4,0.4-1.8
	c0.3-0.4,0.8-0.6,1.6-0.7l1.1-0.1c0.1,0,0.3-0.1,0.3-0.1c0-0.1,0.1-0.2,0.1-0.3V2c0-0.2,0-0.3-0.1-0.4c0-0.1-0.2-0.1-0.3-0.1
	c-1.8,0.2-3.3,0.3-4.6,0.3c-1.3,0-2.8-0.1-4.6-0.3c-0.1,0-0.3,0-0.3,0.1c0,0.1-0.1,0.2-0.1,0.4v0.6c0,0.2,0,0.3,0.1,0.4
	c0,0.1,0.2,0.1,0.3,0.1l1.1,0.1c0.8,0,1.3,0.2,1.6,0.6c0.3,0.4,0.4,1,0.4,1.9v8.1h-14V5.7c0-0.9,0.1-1.5,0.4-1.9
	c0.3-0.4,0.8-0.6,1.6-0.6l1.1-0.1c0.1,0,0.3,0,0.3-0.1c0-0.1,0.1-0.2,0.1-0.4V2c0-0.2,0-0.3-0.1-0.4c0-0.1-0.2-0.1-0.3-0.1
	c-1.8,0.2-3.3,0.3-4.6,0.3c-1.3,0-2.8-0.1-4.6-0.3c-0.2,0-0.3,0-0.3,0.1c0,0.1-0.1,0.2-0.1,0.4v0.6c0,0.2,0,0.3,0.1,0.3
	c0.1,0.1,0.2,0.1,0.3,0.1l1.1,0.1c0.7,0.1,1.3,0.3,1.6,0.7c0.3,0.4,0.4,1,0.4,1.8V25.8 M158.1,26c2.4,2.7,5.2,4,8.6,4
	c3.7,0,6.9-1.5,9.5-4.4c2.6-2.9,3.9-6.6,3.9-10.8c0-3.9-1.2-7.1-3.5-9.8c-2.4-2.7-5.2-4-8.7-4c-3.7,0-6.9,1.5-9.5,4.4
	c-2.6,2.9-3.9,6.6-3.9,10.8C154.6,20.1,155.8,23.3,158.1,26 M174.2,24.9c-1.7,2.3-3.9,3.4-6.5,3.4c-2.9,0-5.2-1.2-7-3.7
	c-1.8-2.5-2.7-5.7-2.7-9.7c0-3.6,0.8-6.6,2.5-8.9c1.7-2.3,3.8-3.4,6.5-3.4c2.9,0,5.3,1.2,7.1,3.7c1.8,2.5,2.7,5.7,2.7,9.7
	C176.8,19.6,175.9,22.6,174.2,24.9 M186.5,5l17.5,24.4c0.3,0.4,0.5,0.5,0.6,0.5h0c0.1,0,0.2,0,0.2-0.1c0-0.1,0-0.3,0-0.6v-24
	c0-1,0.1-1.8,0.4-2.2c0.3-0.4,0.8-0.7,1.6-0.7l1.1-0.1c0.1,0,0.3,0,0.3-0.1c0.1-0.1,0.1-0.2,0.1-0.4V1.1c0-0.2,0-0.3-0.1-0.4
	c-0.1-0.1-0.2-0.1-0.3-0.1c-1.5,0.2-2.8,0.3-3.9,0.3c-1.1,0-2.4-0.1-3.9-0.3c-0.2,0-0.3,0-0.3,0.1c0,0.1-0.1,0.2-0.1,0.4v0.6
	c0,0.2,0,0.3,0.1,0.4c0,0.1,0.2,0.1,0.3,0.1l1.1,0.1c0.7,0,1.3,0.3,1.6,0.7c0.3,0.4,0.4,1.1,0.4,2.1v17.8L187.9,1.2
	c-0.3-0.4-0.5-0.6-0.6-0.6c-1.2,0.2-2.2,0.3-3,0.3c-0.9,0-1.9-0.1-3-0.3c-0.2,0-0.3,0-0.4,0.1c-0.1,0.1-0.1,0.2-0.1,0.4v0.5
	c0,0.2,0,0.4,0.1,0.4s0.2,0.1,0.5,0.1h0.4c0.9,0,1.9,0.4,3,1.4l0.1,0.1v20.8c0,1-0.1,1.8-0.4,2.2c-0.3,0.4-0.8,0.7-1.6,0.7l-1.1,0.1
	c-0.2,0-0.3,0-0.3,0.1c0,0.1-0.1,0.2-0.1,0.4v0.6c0,0.2,0,0.3,0.1,0.4c0,0.1,0.2,0.1,0.3,0.1c1.5-0.2,2.8-0.3,3.9-0.3
	c1.1,0,2.4,0.1,3.9,0.3c0.2,0,0.3,0,0.3-0.1c0-0.1,0.1-0.2,0.1-0.4V28c0-0.2,0-0.3-0.1-0.4c0-0.1-0.2-0.1-0.3-0.1l-1.1-0.1
	c-0.8,0-1.3-0.3-1.6-0.7c-0.3-0.4-0.4-1.1-0.4-2.1L186.5,5L186.5,5z"/>
</svg>
