<?xml version="1.0" encoding="utf-8"?>
<!-- Generator: Adobe Illustrator 27.2.0, SVG Export Plug-In . SVG Version: 6.00 Build 0)  -->
<svg version="1.1" id="Layer_1" xmlns="http://www.w3.org/2000/svg" xmlns:xlink="http://www.w3.org/1999/xlink" x="0px" y="0px"
	 viewBox="0 0 288 288" style="enable-background:new 0 0 288 288;" xml:space="preserve">
<style type="text/css">
	.st0{fill:#FFFFFF;}
</style>
<g>
	<path class="st0" d="M242.3,195.28c1.84,0,3.32,1.5,3.32,3.35c0,1.85-1.49,3.35-3.32,3.35s-3.32-1.5-3.32-3.35
		C238.98,196.78,240.46,195.28,242.3,195.28 M242.3,201.29c1.46,0,2.65-1.2,2.65-2.67c0-1.47-1.19-2.67-2.65-2.67
		c-1.46,0-2.65,1.2-2.65,2.67C239.65,200.1,240.84,201.29,242.3,201.29 M241,196.78h1.74c0.63,0,1.16,0.53,1.16,1.17
		c0,0.49-0.31,0.91-0.74,1.09l0.62,1.44h-0.71l-0.58-1.36h-0.81v1.36H241V196.78z M241.68,198.44h1.05c0.21,0,0.42-0.13,0.48-0.33
		c0.1-0.34-0.14-0.64-0.46-0.64h-1.07V198.44z"/>
	<path class="st0" d="M144.04,205.28c16.06,0,31.16-6.25,42.51-17.61c11.36-11.36,17.61-26.45,17.61-42.51
		c0-9.04-1.96-17.73-5.82-25.82c-1.68-3.53-3.73-6.92-6.07-10.06c-2.87-3.85-5.96-6.85-9.3-9.91c-2.74-2.53-4.33-5.2-4.61-8.16
		c-0.27-2.83,0.72-5.59,2.8-8.07c1.93-2.3,4.69-3.69,7.71-3.92c3.03-0.23,6.55,0.96,8.67,3.08c0,0,1.66,2.37-0.22,4.25
		c-1.88,1.88-4.47,0.44-4.47,0.44c-0.86-0.86-2.35-1.32-3.57-1.21c-1.22,0.11-2.4,0.74-3.19,1.68c-0.92,1.1-1.12,2.26-1.04,3.28
		c0.12,1.41,1.28,2.71,2.16,3.53c4.4,4.05,7.19,6.78,10.37,11.05c2.6,3.49,4.87,7.25,6.75,11.17c4.29,9,6.46,18.65,6.46,28.69
		c0,17.84-6.95,34.61-19.56,47.22c-12.61,12.61-29.38,19.56-47.22,19.56c-17.84,0-34.6-6.95-47.22-19.56
		c-12.61-12.61-19.56-29.38-19.56-47.22c0-10.04,2.17-19.69,6.46-28.69c1.87-3.92,4.14-7.68,6.75-11.17
		c3.18-4.27,5.97-7,10.37-11.05c0.88-0.82,2.04-2.12,2.16-3.53c0.09-1.02-0.11-2.17-1.03-3.28c-0.79-0.94-1.97-1.58-3.19-1.68
		c-1.22-0.11-2.71,0.35-3.57,1.21c0,0-2.33,1.37-4.13-0.44c-1.8-1.8-0.56-4.25-0.56-4.25c2.12-2.12,5.65-3.31,8.67-3.08
		c3.03,0.23,5.78,1.62,7.71,3.92c2.08,2.48,3.07,5.24,2.8,8.07c-0.28,2.96-1.87,5.64-4.61,8.16c-3.33,3.07-6.43,6.07-9.3,9.91
		c-2.35,3.15-4.39,6.53-6.07,10.06c-3.86,8.09-5.82,16.78-5.82,25.82c0,16.06,6.25,31.16,17.61,42.51
		C112.89,199.02,127.98,205.28,144.04,205.28"/>
	<path class="st0" d="M139.37,86.87c-5.8,5.8-14.34,5.65-19.68,0.31c-5.34-5.34-5.34-14.03,0-19.37c5.34-5.34,14.03-5.34,19.37,0
		l2.18,2.18l-4.7,4.7l-2.18-2.18c-2.75-2.75-7.22-2.75-9.96,0c-2.75,2.75-2.75,7.22,0,9.96c2.75,2.75,6.98,2.98,9.96,0l14.36-14.36
		c5.8-5.8,14.34-5.65,19.68-0.31c5.34,5.34,5.34,14.03,0,19.37c-5.34,5.34-14.03,5.34-19.37,0l-2.18-2.18l4.7-4.71l2.18,2.18
		c2.75,2.75,7.22,2.75,9.96,0c2.75-2.75,2.75-7.22,0-9.96c-2.75-2.75-6.98-2.98-9.96,0L139.37,86.87z"/>
	<path class="st0" d="M163.75,152.73c-2.78,8.22-10.55,14.15-19.71,14.15c-11.49,0-20.8-9.31-20.8-20.8c0-11.49,9.31-20.8,20.8-20.8
		c9.16,0,16.93,5.92,19.71,14.15h23.05c-3.2-20.74-21.13-36.62-42.76-36.62c-23.9,0-43.27,19.37-43.27,43.27
		c0,23.9,19.37,43.28,43.27,43.28c21.64,0,39.56-15.88,42.76-36.62H163.75z M144.04,182.82c-20.29,0-36.74-16.45-36.74-36.74
		c0-20.29,16.45-36.74,36.74-36.74c15.62,0,28.96,9.76,34.27,23.5h-10.27c-4.67-8.45-13.67-14.17-24.01-14.17
		c-15.14,0-27.41,12.27-27.41,27.41c0,15.14,12.27,27.41,27.41,27.41c10.34,0,19.34-5.72,24.01-14.18h10.27
		C173,173.06,159.67,182.82,144.04,182.82"/>
	<polygon class="st0" points="30.49,181.7 29.87,179.55 42.92,175.82 40.34,166.81 42.48,166.2 45.67,177.36 	"/>
	<polygon class="st0" points="24.46,147.68 26.67,147.51 27.4,156.63 31.95,156.27 31.27,147.81 33.49,147.64 34.17,156.09 
		38.71,155.73 37.98,146.61 40.2,146.43 41.1,157.78 25.36,159.03 	"/>
	<path class="st0" d="M36.27,134.46c1.68,0.22,2.8-1.51,3.09-3.77c0.29-2.26-0.44-4.22-2.03-4.43c-1.59-0.21-2.35,1.56-3.09,3.77
		c-1.03,3.09-2.3,5.67-5.28,5.28c-2.89-0.37-4.18-3.22-3.76-6.45c0.45-3.45,2.61-5.63,5.28-5.29l-0.29,2.21
		c-1.46-0.19-2.53,1.34-2.79,3.36c-0.29,2.24,0.39,3.77,1.84,3.95c1.23,0.16,2.16-1.43,2.79-3.35c1.11-3.39,2.54-6.09,5.58-5.7
		c3.04,0.39,4.4,3.45,3.95,6.93c-0.45,3.48-2.62,6.08-5.58,5.7L36.27,134.46z"/>
	<polygon class="st0" points="33.11,99.4 35.21,100.12 33.34,105.61 46.19,109.98 45.47,112.09 32.62,107.72 30.75,113.22 
		28.65,112.5 	"/>
	<path class="st0" d="M58.07,86l-1.2,2.06l-4.44-0.68l-3.45,5.92l2.79,3.51l-1.2,2.07L40.05,85.57l1.26-2.16L58.07,86z M47.49,91.44
		l2.58-4.42l-6.89-1.07L47.49,91.44z"/>
	<path class="st0" d="M65.85,63.33l6.5,5.95l-1.51,1.65l-0.57-0.53c-0.3,1.42-0.97,2.74-2,3.86c-3.09,3.37-8.32,3.61-11.68,0.53
		c-3.36-3.08-3.58-8.31-0.49-11.68c1.52-1.66,3.54-2.54,5.62-2.67l0.11,2.22c-1.51,0.1-2.98,0.75-4.08,1.95
		c-2.26,2.47-2.11,6.28,0.35,8.53c2.46,2.25,6.27,2.08,8.54-0.38c1.1-1.2,1.62-2.72,1.59-4.24l-2.23-2.04l-4.07,4.44l-1.64-1.5
		L65.85,63.33z"/>
	<polygon class="st0" points="80.72,43.05 81.99,44.87 74.48,50.1 77.08,53.84 84.05,49 85.32,50.82 78.36,55.67 80.96,59.41 
		88.47,54.18 89.74,56.01 80.4,62.51 71.38,49.55 	"/>
	<path class="st0" d="M125.47,42.93c-4.49,0.88-8.83-2.03-9.71-6.51c-0.87-4.48,2.06-8.81,6.55-9.69c2.21-0.43,4.35,0.05,6.1,1.18
		l-1.23,1.85c-1.27-0.82-2.84-1.17-4.44-0.85c-3.29,0.64-5.42,3.8-4.78,7.08c0.64,3.27,3.8,5.4,7.09,4.75
		c1.6-0.31,2.92-1.23,3.8-2.46l1.84,1.25C129.49,41.24,127.66,42.5,125.47,42.93"/>
	<path class="st0" d="M147.69,24.83c4.57,0.14,8.17,3.94,8.03,8.49c-0.14,4.56-3.95,8.14-8.52,8c-4.57-0.14-8.17-3.94-8.03-8.5
		C139.31,28.28,143.12,24.7,147.69,24.83 M147.27,39.11c3.35,0.1,6.12-2.51,6.23-5.85c0.1-3.33-2.52-6.11-5.87-6.21
		c-3.35-0.1-6.13,2.51-6.23,5.85C141.3,36.24,143.92,39.01,147.27,39.11"/>
	<polygon class="st0" points="170.35,31.83 167.2,43.42 165.04,42.83 169.19,27.6 171.34,28.18 176.72,42.09 179.87,30.5 
		182.03,31.09 177.88,46.33 175.72,45.74 	"/>
	<polygon class="st0" points="193.47,53.4 191.26,52.23 193.12,35.36 195.23,36.48 193.71,50.25 204.2,41.19 206.31,42.31 	"/>
	<polygon class="st0" points="225.19,56.62 223.77,58.33 216.73,52.48 213.82,55.99 220.34,61.4 218.92,63.11 212.4,57.7 
		209.49,61.2 216.53,67.05 215.1,68.76 206.35,61.49 216.44,49.34 	"/>
	<path class="st0" d="M239.22,72.22c1.74,2.21,1.36,5.4-0.85,7.13c-1.89,1.48-4.47,1.41-6.27-0.02l-2.39,6.36l-1.6-2.04l2.34-6.21
		l-2.4-3.06l-4.46,3.5l-1.38-1.76l12.43-9.75L239.22,72.22z M237,77.59c1.24-0.97,1.45-2.76,0.48-4l-3.2-4.08l-4.46,3.5l3.2,4.08
		C233.99,78.34,235.75,78.57,237,77.59"/>
	<polygon class="st0" points="253.82,96.66 251.84,97.67 249.21,92.5 237.12,98.64 236.11,96.65 248.2,90.51 245.57,85.33 
		247.55,84.32 	"/>
	
		<rect x="242.58" y="109.65" transform="matrix(0.9534 -0.3018 0.3018 0.9534 -21.7504 80.7569)" class="st0" width="15.8" height="2.23"/>
	<path class="st0" d="M246.08,124.8l15.66-2.02l1.02,7.91c0.32,2.48-1.43,4.75-3.9,5.07c-1.15,0.15-2.24-0.16-3.12-0.77
		c-0.64,1.34-1.92,2.34-3.48,2.54c-2.47,0.32-4.71-1.44-5.03-3.92L246.08,124.8z M253.1,126.15l-4.52,0.58l0.85,6.6
		c0.16,1.26,1.29,2.15,2.54,1.99c1.26-0.16,2.14-1.31,1.98-2.57L253.1,126.15z M256.03,131.55c0.16,1.26,1.29,2.15,2.54,1.99
		c1.26-0.16,2.14-1.31,1.98-2.57l-0.73-5.69l-4.52,0.58L256.03,131.55z"/>
	<polygon class="st0" points="263.54,148.61 263.37,150.84 249.84,149.78 249.12,159.13 246.9,158.96 247.8,147.38 	"/>
	<polygon class="st0" points="257.51,182.11 255.37,181.51 257.83,172.7 253.44,171.47 251.16,179.64 249.01,179.04 251.3,170.87 
		246.91,169.65 244.44,178.46 242.3,177.86 245.36,166.9 260.57,171.15 	"/>
	<path class="st0" d="M55.36,224.67c-3.04-3.42-2.75-8.64,0.66-11.67c3.41-3.04,8.63-2.72,11.67,0.69c1.5,1.68,2.17,3.78,2.09,5.85
		l-2.22-0.12c0.05-1.51-0.45-3.04-1.53-4.26c-2.23-2.5-6.03-2.72-8.52-0.51c-2.49,2.22-2.7,6.03-0.48,8.53
		c1.08,1.22,2.55,1.89,4.05,2.01l-0.14,2.22C58.86,227.26,56.85,226.33,55.36,224.67"/>
	<path class="st0" d="M82.47,226.98c3.68,2.72,4.46,7.89,1.75,11.56c-2.71,3.67-7.89,4.43-11.57,1.71
		c-3.68-2.72-4.46-7.89-1.75-11.56C73.62,225.03,78.8,224.26,82.47,226.98 M73.98,238.46c2.69,1.99,6.46,1.43,8.45-1.25
		c1.99-2.68,1.42-6.45-1.28-8.44c-2.69-1.99-6.46-1.43-8.45,1.25C70.72,232.7,71.29,236.47,73.98,238.46"/>
	<polygon class="st0" points="95.7,235.85 97.73,236.79 92.01,249.09 100.51,253.04 99.57,255.06 89.04,250.16 	"/>
	<polygon class="st0" points="112.83,242.96 114.99,243.52 111.56,256.65 120.63,259.02 120.06,261.17 108.83,258.24 	"/>
	<polygon class="st0" points="142.3,247.76 142.14,249.97 133.01,249.3 132.68,253.84 141.13,254.47 140.97,256.69 132.51,256.06 
		132.17,260.61 141.3,261.29 141.13,263.5 129.78,262.66 130.95,246.91 	"/>
	<path class="st0" d="M158.85,262.85c-4.55,0.5-8.64-2.76-9.14-7.29c-0.5-4.53,2.77-8.61,7.32-9.11c2.24-0.25,4.33,0.41,5.98,1.69
		l-1.38,1.74c-1.2-0.92-2.74-1.4-4.36-1.22c-3.33,0.37-5.71,3.34-5.35,6.66c0.37,3.32,3.35,5.69,6.67,5.32
		c1.62-0.18,3.01-0.98,3.98-2.14l1.73,1.4C162.98,261.49,161.06,262.6,158.85,262.85"/>
	<polygon class="st0" points="181.53,240.89 182.19,243.01 176.65,244.73 180.67,257.69 178.54,258.35 174.52,245.39 168.97,247.11 
		168.31,244.99 	"/>
	
		<rect x="190.78" y="236.88" transform="matrix(0.9039 -0.4278 0.4278 0.9039 -86.2734 105.6331)" class="st0" width="2.23" height="15.79"/>
	<path class="st0" d="M202.83,228.97c3.77-2.6,8.92-1.66,11.51,2.09c2.59,3.75,1.64,8.9-2.13,11.5c-3.77,2.6-8.92,1.66-11.51-2.09
		C198.12,236.71,199.07,231.57,202.83,228.97 M210.95,240.72c2.76-1.9,3.45-5.65,1.55-8.4c-1.9-2.75-5.65-3.43-8.4-1.53
		c-2.76,1.9-3.45,5.65-1.55,8.4C204.44,241.94,208.19,242.62,210.95,240.72"/>
	<polygon class="st0" points="219.89,220.3 228.68,228.48 227.16,230.12 215.6,219.36 217.12,217.72 231.93,219.44 223.14,211.25 
		224.66,209.62 236.22,220.38 234.7,222.01 	"/>
</g>
</svg>
