<?xml version="1.0" encoding="utf-8"?>
<!-- Generator: Adobe Illustrator 27.2.0, SVG Export Plug-In . SVG Version: 6.00 Build 0)  -->
<svg version="1.1" id="Layer_1" xmlns="http://www.w3.org/2000/svg" xmlns:xlink="http://www.w3.org/1999/xlink" x="0px" y="0px"
	 viewBox="0 0 288 288" style="enable-background:new 0 0 288 288;" xml:space="preserve">
<style type="text/css">
	.st0{fill:#FFFFFF;}
</style>
<g>
	<path class="st0" d="M128.5,39.9l-1.3-16l2.3-0.2l9.9,11.4l-1-12.2l2.3-0.2l1.3,16l-2.3,0.2l-9.9-11.3l1,12.2L128.5,39.9z
		 M117.7,42.3l-4.2-15.5l-2.2,0.6l4.2,15.5L117.7,42.3z M255.7,122.4c0-2.1,1.7-3.7,3.7-3.7c2.1,0,3.7,1.7,3.7,3.7
		c0,2.1-1.7,3.7-3.7,3.7C257.4,126.2,255.7,124.5,255.7,122.4z M256.5,122.4c0,1.6,1.3,3,3,3c1.6,0,3-1.3,3-3c0-1.6-1.3-3-3-3
		C257.8,119.5,256.5,120.8,256.5,122.4z M54.7,88.2l-2-1.1l-4.5,8.1L44.1,93l4.1-7.5l-2-1.1l-4.1,7.5L38,89.7l4.5-8.1l-2-1.1
		L35,90.6l14.1,7.7L54.7,88.2z M85.1,56.7l-1.4-1.8l-7.3,5.7l-2.8-3.7l6.8-5.2L79,49.9l-6.8,5.2l-2.8-3.7l7.4-5.6L75.4,44l-9.2,7
		L76,63.7L85.1,56.7z M95.8,50.5l-5.1-11.1l13.2,7.3l2.1-0.9l-6.7-14.6l-2.1,0.9l5.1,11.1l-13.2-7.3l-2.1,1l6.7,14.6L95.8,50.5z
		 M160.1,40.6c1.5,0.2,3,0,4.4-0.5l-0.1,0.8l2.2,0.3l1.3-8.9l-8.3-1.2l-0.3,2.2l6,0.9l-0.4,3c-1.3,0.9-2.8,1.3-4.5,1.1
		c-3.4-0.5-5.7-3.6-5.2-7s3.6-5.7,7-5.2c1.6,0.2,3,1.1,4,2.3L168,27c-1.3-1.7-3.2-2.9-5.4-3.2c-4.6-0.7-8.8,2.5-9.5,7.1
		C152.3,35.7,155.5,40,160.1,40.6z M218.3,69.6l12-10.6l4.1,4.7c2.9,3.3,2.6,8.4-0.7,11.3s-8.4,2.6-11.3-0.7L218.3,69.6z
		 M230.1,62.1l-8.6,7.6l2.6,3c2.1,2.4,5.7,2.6,8.1,0.5c2.4-2.1,2.6-5.8,0.5-8.1L230.1,62.1z M258.7,124.5H258v-4.1h2
		c0.7,0,1.3,0.6,1.3,1.3c0,0.5-0.4,1-0.8,1.2l0.7,1.6h-0.8l-0.7-1.5h-0.9v1.5H258.7z M258.7,122.2h1.2c0.3,0,0.5-0.2,0.5-0.5
		s-0.2-0.5-0.5-0.5h-1.2V122.2z M238.9,98.6l2-1.1l-4.5-8.1l4.1-2.3l4.2,7.5l2-1.1l-4.2-7.5l4.1-2.3l4.5,8.1l2-1.1l-5.6-10.1
		l-14,7.8L238.9,98.6z M196.4,53l6.8-12l5.1,2.9l1.1-2L197.2,35l-1.1,2l5.1,2.9l-6.8,12L196.4,53z M209.9,62.3l9.9-12.6l-1.8-1.4
		l-9.9,12.6L209.9,62.3z M25.2,135.3l13.8,0.5l0.1-2.3l-16-0.5l-0.4,11.8l2.3,0.1L25.2,135.3z M248.7,135.6l12.2-0.7l-11.7,9.6
		l0.1,2.3l16-0.9l-0.1-2.3l-12.2,0.7l11.7-9.6l-0.1-2.3l-16,0.9L248.7,135.6z M199.9,249.1l-7-11.9l-2,1.1l8.1,13.8l10.1-6l-1.1-2
		L199.9,249.1z M218,237.3l-3-3.5l6.5-5.6l-1.5-1.7l-6.5,5.6l-3-3.5l7-6.1l-1.5-1.7l-8.7,7.6l10.5,12.1l8.7-7.6l-1.5-1.7L218,237.3z
		 M180.1,257.5l-4.7-13l-2.1,0.8l5.5,15.1l11-4l-0.8-2.1L180.1,257.5z M238.8,213.5c0.2,1.5-0.2,3.1-1.3,4.4
		c-2.1,2.7-5.9,3.1-8.6,1.1c-2.7-2.1-3.1-5.9-1.1-8.6c1-1.3,2.5-2.1,4-2.3l-0.3-2.2c-2.1,0.3-4.1,1.3-5.5,3.1
		c-2.9,3.7-2.2,8.9,1.4,11.8c3.7,2.9,8.9,2.2,11.8-1.4c1.4-1.8,1.9-4,1.7-6.1L238.8,213.5z M166.6,255.2c0.7,4.6-2.5,8.8-7.1,9.5
		c-4.6,0.7-8.8-2.5-9.5-7.1c-0.7-4.6,2.5-8.8,7.1-9.5C161.7,247.4,165.9,250.6,166.6,255.2z M164.3,255.5c-0.5-3.4-3.6-5.7-6.9-5.2
		c-3.4,0.5-5.7,3.6-5.2,6.9c0.5,3.4,3.6,5.7,6.9,5.2C162.5,262,164.8,258.9,164.3,255.5z M143.9,215.7c-39.4,0-71.5-32.1-71.5-71.5
		s32.1-71.6,71.5-71.6s71.5,32.1,71.5,71.5S183.3,215.7,143.9,215.7z M85.8,112.3c0.7,0.3,1.3,0.6,1.9,0.9c2.8,1.3,5.2,2.5,10.3,2.5
		c5.1,0,7.5-1.2,10.3-2.5c3-1.4,6.3-3,12.7-3s9.7,1.6,12.7,3c2.8,1.3,5.2,2.5,10.3,2.5s7.5-1.2,10.3-2.5c3-1.4,6.3-3,12.7-3
		s9.7,1.6,12.7,3c2.8,1.3,5.2,2.5,10.3,2.5s7.5-1.2,10.3-2.5c0.6-0.3,1.2-0.6,1.9-0.9c-11.3-20.5-33.1-34.4-58.1-34.4
		S97.1,91.8,85.8,112.3z M108.3,194.7c3-1.4,6.3-3,12.7-3s9.7,1.6,12.7,3c2.8,1.3,5.2,2.5,10.3,2.5s7.5-1.2,10.3-2.5
		c3-1.4,6.3-3,12.7-3c0.6,0,1.1,0,1.7,0.1l-1.4-10.8l0,0c-5.3,0-7.8,1.1-10.6,2.5c-3,1.4-6.3,3-12.7,3c-6.4,0-9.7-1.6-12.7-3
		c-2.8-1.3-5.2-2.5-10.3-2.5c-2.5,0-4.4,0.3-5.9,0.7l2.8-22.4c1-0.1,2-0.2,3.1-0.2c6.4,0,9.7,1.6,12.7,3c2.8,1.3,5.2,2.5,10.3,2.5
		s7.5-1.2,10.3-2.5c2.6-1.2,5.4-2.6,10.2-2.9l-1.3-10.6c-2.7,0.4-4.5,1.3-6.5,2.2c-3,1.4-6.3,3-12.7,3c-6.4,0-9.7-1.6-12.7-3
		c-2.8-1.3-5.2-2.5-10.3-2.5c-0.6,0-1.2,0-1.7,0.1l2.8-21.8c5.7,0.2,8.9,1.7,11.7,3s5.2,2.5,10.3,2.5s7.5-1.2,10.3-2.5
		c1.7-0.8,3.6-1.7,6.2-2.3l-1.3-10.1c-0.9,0.3-1.7,0.7-2.5,1.1c-3,1.4-6.3,3-12.7,3c-6.4,0-9.7-1.6-12.7-3
		c-2.8-1.3-5.2-2.5-10.3-2.5c-5.1,0-7.5,1.2-10.3,2.5c-3,1.4-6.3,3-12.7,3c-6.4,0-9.7-1.6-12.7-3c-0.7-0.3-1.3-0.6-2-0.9
		c-1.4,3.1-2.5,6.3-3.4,9.6c3.4,0.6,5.7,1.7,7.8,2.7c2.8,1.3,5.2,2.5,10.3,2.5c5.1,0,7.5-1.2,10.3-2.5c1.5-0.7,3.2-1.5,5.3-2.1
		l-0.8,6.1c-0.7,0.3-1.4,0.6-2.2,1c-3,1.4-6.3,3-12.7,3c-6.4,0-9.7-1.6-12.7-3c-2-1-3.8-1.8-6.6-2.2c-0.6,3.5-1,7-1.1,10.6
		c4.7,0.4,7.5,1.7,10,2.9c2.8,1.3,5.2,2.5,10.3,2.5c5.1,0,7.5-1.2,10.3-2.5c1-0.5,2-1,3.2-1.4l-0.8,6.4c-3,1.4-6.3,3-12.6,3
		c-6.4,0-9.7-1.6-12.7-3c-2.2-1.1-4.2-2-7.5-2.3c0.2,3.7,0.8,7.4,1.6,11c3.7,0.5,6.1,1.7,8.3,2.7c2.8,1.3,5.2,2.5,10.3,2.5
		c5.1,0,7.5-1.2,10.3-2.5c0.3-0.2,0.7-0.3,1-0.5l-0.8,6.5c-2.5,1.1-5.6,2-10.5,2c-6.4,0-9.7-1.6-12.7-3c-1.4-0.7-2.6-1.3-4.2-1.7
		c1.5,4.5,3.5,8.7,5.9,12.7c0.2,0.1,0.5,0.2,0.7,0.3c2.8,1.3,5.2,2.5,10.3,2.5c4.4,0,6.8-0.8,9.1-1.9l-0.8,6.2
		c-2.1,0.7-4.7,1.2-8.3,1.2c-2.1,0-3.9-0.2-5.5-0.5c3.2,4,6.9,7.5,10.9,10.7C105.3,196.1,106.7,195.4,108.3,194.7z M195.3,185.9
		c-1.6,0.3-3.3,0.5-5.5,0.5c-3.6,0-6.2-0.5-8.3-1.2l-0.8-6.2c2.3,1.1,4.7,1.9,9.1,1.9c5.1,0,7.5-1.2,10.3-2.5
		c0.2-0.1,0.5-0.2,0.7-0.3c2.4-4,4.4-8.2,5.9-12.7c-1.5,0.5-2.8,1.1-4.2,1.7c-3,1.4-6.3,3-12.7,3c-4.8,0-7.9-0.9-10.5-2l-0.8-6.5
		c0.3,0.2,0.7,0.3,1,0.5c2.8,1.3,5.2,2.5,10.3,2.5s7.5-1.2,10.3-2.5c2.2-1,4.6-2.2,8.3-2.7c0.8-3.6,1.4-7.2,1.6-11
		c-3.3,0.3-5.3,1.3-7.5,2.3c-3,1.4-6.3,3-12.7,3c-6.3,0-9.7-1.6-12.6-3l-0.8-6.4c1.2,0.4,2.2,0.9,3.2,1.4c2.8,1.3,5.2,2.5,10.3,2.5
		s7.5-1.2,10.3-2.5c2.5-1.2,5.3-2.6,10-2.9c-0.1-3.6-0.4-7.2-1.1-10.6c-2.8,0.4-4.6,1.3-6.6,2.2c-3,1.4-6.3,3-12.7,3
		s-9.7-1.6-12.7-3c-0.7-0.3-1.4-0.7-2.1-1l-0.8-6.1c2.1,0.6,3.8,1.4,5.3,2.1c2.8,1.3,5.2,2.5,10.3,2.5s7.5-1.2,10.3-2.5
		c2.1-1,4.4-2.1,7.8-2.7c-0.9-3.3-2-6.5-3.4-9.6c-0.7,0.3-1.3,0.6-2,0.9c-3,1.4-6.3,3-12.7,3s-9.7-1.6-12.7-3
		c-2.8-1.3-5.2-2.5-10.3-2.5c-0.9,0-1.6,0-2.4,0.1l2,16.2c-4.9,0-7.3,1.2-10,2.5c-3,1.4-6.3,3-12.7,3c-6.4,0-9.7-1.6-12.7-3
		c-1.5-0.7-2.8-1.3-4.5-1.8l-1.3,10.4c3.6,0.5,6,1.7,8.2,2.7c2.8,1.3,5.2,2.5,10.3,2.5s7.5-1.2,10.3-2.5c3-1.4,6.3-3,12.7-3
		c0.4,0,0.7,0,1.1,0l2.8,22.1c-1.1-0.2-2.4-0.3-3.8-0.3c-5.1,0-7.5,1.2-10.3,2.5c-3,1.4-6.3,3-12.7,3c-6.4,0-9.7-1.6-12.7-3
		c-2.4-1.2-4.6-2.2-8.5-2.4l-1.4,10.8c6.1,0.1,9.4,1.6,12.3,3c2.8,1.3,5.2,2.5,10.3,2.5s7.5-1.2,10.3-2.5c3-1.4,6.3-3,12.7-3
		c2,0,3.7,0.2,5.2,0.4l2.8,22.4c0,0.2-0.2,0.4-0.4,0.3c-2-0.8-4.2-1.3-7.7-1.3c-5.1,0-7.5,1.2-10.3,2.5c-3,1.4-6.3,3-12.7,3
		c-6.4,0-9.7-1.6-12.7-3c-2.8-1.3-5.2-2.5-10.3-2.5c-5.1,0-7.5,1.2-10.3,2.5c-0.5,0.3-1.1,0.5-1.7,0.8c10.1,6.3,22.1,10,34.9,10
		C164.6,210.4,183.1,200.9,195.3,185.9z M30.1,155.6l1.2,8.5l2.2-0.3l-1.2-8.5l4.6-0.7l1.3,9.2l2.2-0.3l-1.7-11.4L23,154.3l1.7,11.4
		l2.2-0.3l-1.3-9.2L30.1,155.6z M241.9,188.3l-2-1l-6.4,12.5l2,1l2.7-5.2l12.3,6.3l1-2l-12.3-6.3L241.9,188.3z M242.4,180.9
		l15.2,5.2l0.7-2.1l-15.2-5.2L242.4,180.9z M263.5,165.8c-0.8,4.6-5.1,7.7-9.6,6.9c-4.6-0.8-7.7-5.1-6.9-9.6
		c0.8-4.6,5.1-7.7,9.6-6.9C261.1,156.9,264.2,161.2,263.5,165.8z M256.2,158.4c-3.3-0.6-6.5,1.7-7,5.1c-0.6,3.3,1.7,6.5,5.1,7
		c3.3,0.5,6.5-1.7,7-5.1C261.8,162.1,259.5,159,256.2,158.4z M55.4,61.2L62,73.6l-13.3-4.7l-1.6,1.8l16.3,5.7l1.6-1.8l-8-15.2
		L55.4,61.2z M53.2,201.8l2-1.1l-7-12.2l-2,1.1l2.9,5.1l-12,6.9l1.1,2l12-6.9L53.2,201.8z M62.6,210.8l1.7,1.9l-8,15.3l-1.6-1.8
		l2.1-4.1l-4.6-5.2l-4.3,1.6l-1.6-1.8L62.6,210.8z M61.2,213.7l-6.7,2.4l3.4,3.9L61.2,213.7z M37.8,179.4c-0.3-2-0.2-3.9,1-4.3
		c1.4-0.5,2.7,0.6,3.5,2.7c0.7,1.9,0.4,3.8-1,4.3l0.8,2.1c2.6-0.9,3.6-3.9,2.4-7.2c-1.1-3.1-3.6-5.1-6.4-4.1c-2.9,1-2.9,3.9-2.4,7.2
		c0.3,2.3,0.5,4.3-1.1,4.8c-1.5,0.5-3.1-0.9-3.9-3.1c-0.8-2.2-0.5-4.2,1.1-4.8l-0.8-2.1c-2.9,1-3.6,4.4-2.5,7.7
		c1.2,3.3,3.8,5.5,6.8,4.5C38.3,186.1,38.4,183,37.8,179.4z M85,250.3l10.4,5l1-2l-8.4-4l2-4.2l7.7,3.7l1-2l-7.7-3.7l2-4.2l8.4,4
		l1-2l-10.4-5L85,250.3z M79.2,226.5c-3.7-2.8-8.9-2.1-11.8,1.5c-2.8,3.7-2.1,8.9,1.5,11.8c1.2,0.9,2.6,1.5,4.1,1.7l-0.5,0.6
		l1.8,1.4l5.5-7.1l-6.6-5.1l-1.4,1.8l4.8,3.7l-1.9,2.4c-1.5,0.2-3.1-0.2-4.4-1.2c-2.7-2.1-3.2-5.9-1.1-8.6c2.1-2.7,5.9-3.2,8.6-1.1
		c1.3,1,2.1,2.4,2.3,4l2.2-0.3C82.1,229.9,81.1,227.9,79.2,226.5z M136.1,250.9c1.6,0.1,3.1,0.9,4.1,2l1.7-1.5
		c-1.4-1.6-3.4-2.6-5.7-2.8c-4.6-0.3-8.6,3.2-8.9,7.8s3.2,8.6,7.8,8.9c2.3,0.2,4.4-0.6,6-2l-1.5-1.7c-1.2,1-2.7,1.5-4.4,1.4
		c-3.4-0.2-5.9-3.1-5.7-6.5C129.8,253.2,132.7,250.6,136.1,250.9z M143.9,100.5c5,0,9.4,2.5,12,6.4c1.5-0.7,3.2-1.3,5.4-1.7
		c-3.4-6.1-9.9-10.2-17.4-10.2s-14,4.1-17.4,10.2c2.2,0.4,3.9,1.1,5.4,1.8C134.5,103,138.9,100.5,143.9,100.5z"/>
</g>
</svg>
