<?xml version="1.0" encoding="utf-8"?>
<!-- Generator: Adobe Illustrator 27.2.0, SVG Export Plug-In . SVG Version: 6.00 Build 0)  -->
<svg version="1.1" id="Layer_1" xmlns="http://www.w3.org/2000/svg" xmlns:xlink="http://www.w3.org/1999/xlink" x="0px" y="0px"
	 viewBox="0 0 144 110.2" style="enable-background:new 0 0 144 110.2;" xml:space="preserve">
<style type="text/css">
	.st0{fill:#A17566;}
	.st1{fill:#F16464;}
	.st2{fill:#F8A48D;}
</style>
<g>
	<g>
		<path class="st0" d="M123.4,82.9c-0.1-0.9-0.8-23.7-0.8-23.7s-4.3,0.3-6.8,0c-2.4-0.3-22-0.6-23.5-0.9C90.7,58,84.2,58,84.2,58
			s-0.7,17.7-0.7,19c0,1.3-0.4,7.1-0.4,8.2c0,1.2-0.3,17.8-0.3,17.8s12.8,0.4,15.7,0.4c2.9,0,23.8-0.5,23.8-0.5
			S123.5,83.7,123.4,82.9L123.4,82.9z M116.9,81.7c0,0-1.1,14.9-14,14.4c-8.1-0.3-12-9.2-12.7-11.8c-0.7-2.6-0.5-3.5-0.5-3.5
			s0-4.6,3.3-9.1c1.9-3.8,8.8-5.5,12-5.5c0,0,4.6,0.9,7.2,3.9C116.3,74.7,116.9,81.7,116.9,81.7L116.9,81.7z"/>
		<path class="st1" d="M128.5,7.1l-18.6-0.5l-30,0.9l1,44.8c0,0,25.2,0.3,29.5,0.3c4.3,0,16.7,0,16.7,0l-0.2-5.7L128.5,7.1
			L128.5,7.1z M119,28.8c-1.1,2.3-6,9.5-6.9,10.5c-0.8,0.9-5.7,6-5.7,6s-1.9-1.1-2.3-1.6c-0.4-0.5-8.8-7.8-11.2-10.2
			c-2.3-2.5-3.5-5.4-3.6-8.1c-0.1-2.7,0.9-7.4,3.4-8.6c2.6-1.2,5-1.2,6.9-0.4c1.2,0.3,4.4,4.5,4.6,4.5c0.2,0,0.7-0.1,0.9-0.5
			c0.2-0.5,1.4-4.2,4-5.2c2.5-1,4.3-0.8,5.8-0.4c3.2,0.8,4.5,4.2,4.9,6.9C120.2,24.6,119.5,27.6,119,28.8L119,28.8z"/>
		<path class="st2" d="M75.9,72.2c0,0-0.3-37.4-0.5-38.9c-0.2-1.5-0.7-27.5-0.7-27.5L22.6,4.6c0,0,0.5,34.5,0.5,37.1
			c0,2.5,0.5,32.8,0.5,32.8s22.4-0.2,25.3-0.4C51.7,73.8,75.9,72.2,75.9,72.2L75.9,72.2z M60.2,56.9c-2.8,6-8.6,6.3-8.6,6.3
			s-6.6,0.9-11.2-5.3c-2.8-3.5-5-13.8-5-13.8s-0.8-6.5,0.3-13.5c1.2-7.1,5.8-10.9,6.8-11.5c2.4-1.4,4.4-1.4,4.4-1.4
			s6.7-0.1,10.9,5.8c3.5,4.6,4.6,9.2,5.3,14.6C64,43.5,63.4,50.2,60.2,56.9L60.2,56.9z"/>
	</g>
</g>
<path class="st1" d="M78,79.2c0,0-25.2-0.1-27.9-0.1c-2.7,0-24,0.9-24,0.9l0,24.8l51.6,0l-0.1-11.2L78,79.2z M33.3,100.6
	c-1.3,0-2.3-0.7-2.3-1.5c0-0.5,0.3-0.8,0.7-0.8c0.4,0,0.7,0.3,0.7,0.6c0,0.2,0,0.3-0.1,0.4c0.2,0.2,0.6,0.3,1,0.3
	c0.7,0,1.1-0.3,1.1-0.9c0-0.5-0.5-0.8-1.2-1c-1.2-0.4-2-0.8-2-2c0-1,0.8-1.8,2.1-1.8c1.2,0,2.1,0.6,2.1,1.4c0,0.5-0.3,0.7-0.6,0.7
	c-0.4,0-0.7-0.3-0.7-0.6c0-0.2,0-0.2,0.1-0.3c-0.2-0.1-0.4-0.2-0.8-0.2c-0.6,0-1,0.3-1,0.8c0,0.5,0.5,0.8,1.2,1c1.1,0.4,2,0.8,2,2
	C35.6,99.9,34.6,100.6,33.3,100.6z M35.8,91.3h-4.6v-1h0.7V86h-0.7v-1h2.7v1H33v4.4h1.7v-0.9h1.1V91.3z M43,96.1h-1v-1h-1.2v4.4h0.8
	v1h-2.7v-1h0.8v-4.4h-1.2v1h-1v-1.9H43V96.1z M40.3,91.5c-1.9,0-3.2-1.4-3.2-3.3c0-1.9,1.4-3.3,3.3-3.3c1.9,0,3.2,1.4,3.2,3.3
	C43.6,90,42.2,91.5,40.3,91.5z M50.9,95.1h-0.7v3c0,1.7-1,2.5-2.4,2.5c-1.4,0-2.4-0.8-2.4-2.4v-3.1h-0.7v-1h2.5v1h-0.8v3
	c0,1,0.5,1.5,1.3,1.5c0.8,0,1.3-0.5,1.3-1.5v-3h-0.8v-1h2.5V95.1z M48.6,91.5c-2,0-3.4-1.3-3.4-3.3c0-1.9,1.5-3.3,3.3-3.3
	c1.5,0,2.5,0.8,2.5,1.5c0,0.5-0.3,0.8-0.7,0.8c-0.4,0-0.7-0.3-0.7-0.7c0-0.1,0-0.3,0.1-0.3c-0.2-0.1-0.6-0.3-1.1-0.3
	c-1.2,0-2.2,0.9-2.2,2.3c0,1.3,0.9,2.3,2.2,2.3c0.7,0,1.4-0.3,1.8-0.8l0.7,0.8C50.5,91,49.6,91.5,48.6,91.5z M52.7,90.4h0.7V86h-0.7
	v-1h2.6v1h-0.8v2.2l2.1-2.2h-0.7v-1h2.8v1H58l-1.8,1.7l1.6,2.7h0.8v1h-1.5l-1.8-2.9l-0.9,0.9v1h0.8v1h-2.6V90.4z M55.1,100.5h-2.3
	v-1h0.7v-4.4h-0.7v-1h2.4c2.3,0,3.7,1.2,3.7,3.1C58.9,99.2,57.6,100.5,55.1,100.5z M63.4,95.1h-0.8v4.4h0.8v1h-2.6v-1h0.8v-4.4h-0.8
	v-1h2.6V95.1z M64.9,91.3h-4.7v-1h0.7V86h-0.7v-1h4.7v1.8h-1V86H62v1.7h1.9v0.9H62v1.8h1.9v-0.8h1V91.3z M68.4,100.6
	c-1.9,0-3.2-1.4-3.2-3.3c0-1.9,1.4-3.3,3.3-3.3c1.9,0,3.2,1.4,3.2,3.3C71.7,99.2,70.4,100.6,68.4,100.6z M71.8,86.9h-1v-1h-1.2v4.4
	h0.8v1h-2.7v-1h0.8v-4.4h-1.2v1h-1V85h5.5V86.9z M57.7,97.3c0,1.4-0.9,2.2-2.5,2.2h-0.6v-4.4h0.6C56.8,95.1,57.7,95.9,57.7,97.3z
	 M70.6,97.3c0,1.3-0.9,2.3-2.1,2.3c-1.2,0-2.1-1-2.1-2.3c0-1.3,0.9-2.3,2.1-2.3C69.7,95.1,70.6,96,70.6,97.3z M42.5,88.2
	c0,1.3-0.9,2.3-2.1,2.3c-1.2,0-2.1-1-2.1-2.3c0-1.3,0.9-2.3,2.1-2.3C41.6,85.9,42.5,86.9,42.5,88.2z"/>
</svg>
