<?xml version="1.0" encoding="utf-8"?>
<!-- Generator: Adobe Illustrator 27.2.0, SVG Export Plug-In . SVG Version: 6.00 Build 0)  -->
<svg version="1.1" id="Layer_1" xmlns="http://www.w3.org/2000/svg" xmlns:xlink="http://www.w3.org/1999/xlink" x="0px" y="0px"
	 viewBox="0 0 432 432" style="enable-background:new 0 0 432 432;" xml:space="preserve">
<style type="text/css">
	.st0{fill:#FFFFFF;}
</style>
<polygon class="st0" points="73.52,263.76 74.72,266.77 56.46,274.04 61.49,286.65 58.49,287.85 52.28,272.22 "/>
<polygon class="st0" points="96.55,306.65 93.89,308.47 86.42,297.52 80.96,301.24 87.89,311.39 85.23,313.2 78.3,303.06 
	72.85,306.78 80.33,317.73 77.66,319.54 68.37,305.93 87.25,293.03 "/>
<path class="st0" d="M98.22,333.07c-1.66,1.79-0.56,4.56,1.86,6.8c2.42,2.24,5.36,3.02,6.93,1.31c1.57-1.71,0.12-4.09-1.86-6.8
	c-2.79-3.8-4.77-7.47-1.81-10.66c2.86-3.1,7.31-2.24,10.78,0.96c3.7,3.42,4.46,7.8,1.81,10.67l-2.38-2.19
	c1.44-1.56,0.54-4.11-1.62-6.11c-2.4-2.21-4.77-2.7-6.22-1.13c-1.22,1.33-0.12,3.75,1.63,6.1c3.07,4.16,5.07,8.1,2.04,11.36
	c-3.01,3.27-7.76,2.31-11.49-1.13c-3.73-3.44-4.98-8.19-2.05-11.37L98.22,333.07z"/>
<polygon class="st0" points="149.09,349.76 147.47,352.55 140.2,348.33 130.34,365.33 127.55,363.71 137.41,346.71 130.13,342.49 
	131.75,339.7 "/>
<path class="st0" d="M172.48,382.71l-3.29-1.07l-0.41-6.5l-9.44-3.06l-4.12,5.03l-3.29-1.07l15.62-18.98l3.44,1.12L172.48,382.71z
	 M161.54,369.4l7.04,2.29l-0.6-10.09L161.54,369.4z"/>
<path class="st0" d="M213.92,375.4l-0.97,12.72l-3.22-0.24l0.08-1.12c-1.89,0.92-3.99,1.34-6.19,1.18
	c-6.61-0.51-11.56-6.24-11.06-12.82c0.5-6.59,6.26-11.51,12.87-11.01c3.25,0.24,6.06,1.75,8.06,4.01l-2.43,2.11
	c-1.47-1.63-3.52-2.73-5.88-2.9c-4.84-0.37-9.03,3.22-9.4,8.04c-0.36,4.82,3.24,9,8.08,9.37c2.35,0.18,4.55-0.59,6.25-1.98
	l0.33-4.37l-8.71-0.66l0.25-3.21L213.92,375.4z"/>
<polygon class="st0" points="249.53,361.46 250.05,364.64 236.98,366.81 238.06,373.33 250.18,371.31 250.71,374.49 238.59,376.51 
	239.67,383.02 252.75,380.84 253.28,384.02 237.01,386.73 233.26,364.16 "/>
<polygon class="st0" points="294.65,348.15 293.76,351.6 290.62,350.79 292.32,344.21 295.1,342.57 306.75,362.25 303.97,363.9 "/>
<path class="st0" d="M317.03,340.31c-1.83,0.01-3.38-0.78-4.58-2.17c-2.32-2.68-2.49-6.62,1.76-10.31
	c4.25-3.69,8.13-2.96,10.46-0.29c1.2,1.39,1.77,3.03,1.5,4.84c2.44-0.45,4.53,0.38,6,2.08c2.51,2.9,2.42,7.33-2.29,11.42
	c-4.71,4.09-9.11,3.56-11.63,0.66C316.76,344.85,316.24,342.66,317.03,340.31 M320.66,335.28c2.88-2.5,2.71-4.27,1.55-5.61
	c-1.16-1.34-3.02-1.9-5.9,0.59c-2.88,2.5-2.59,4.42-1.42,5.76C316.05,337.36,317.78,337.78,320.66,335.28 M327.76,343.46
	c3.37-2.92,3.29-5.33,1.96-6.86c-1.33-1.53-3.58-1.8-6.95,1.12c-3.37,2.93-3.42,5.18-2.09,6.72
	C322.01,345.96,324.39,346.38,327.76,343.46"/>
<path class="st0" d="M343.25,303.91c-1.69-0.02-3.57,0.99-4.82,2.63c-2.28,3.02-1.06,6.42,2.66,9.51c-0.28-1.87,0.24-3.95,1.86-6.09
	c3.24-4.28,7.82-4.83,11.08-2.36c3.26,2.47,4.13,7.14,0.9,11.42c-3.49,4.62-9.41,4.44-15.09,0.14c-5.68-4.29-7.46-9.94-3.97-14.56
	c1.93-2.55,4.82-3.97,7.58-3.88L343.25,303.91z M352.36,317.08c2.17-2.86,1.57-5.5-0.28-6.89c-1.85-1.4-4.39-1.13-6.56,1.72
	c-2.16,2.87-1.73,5.38,0.12,6.79C347.49,320.09,350.58,319.43,352.36,317.08"/>
<path class="st0" d="M364.54,291.92c1.68,0.44,3.76-0.4,5.44-3.97c1.91-4.04,0.87-6.21-0.96-7.07c-1.83-0.87-4-0.21-5.91,3.82
	l-0.56,1.17l-2.91-1.38l0.55-1.16c1.63-3.45,0.76-5.01-0.84-5.76c-1.6-0.76-3.53-0.53-5.16,2.92c-1.41,2.98-0.77,4.64,0.43,5.5
	l-1.87,2.66c-2.46-1.74-3.61-5.03-1.47-9.53c2.4-5.09,6.25-5.98,9.45-4.47c1.66,0.79,2.84,2.06,3.32,3.82
	c2.05-1.39,4.29-1.47,6.33-0.51c3.47,1.64,5.16,5.74,2.49,11.38c-2.38,5.02-6.04,6.58-9.23,5.72L364.54,291.92z"/>
<path class="st0" d="M66.46,206.72c-0.28,6.62-5.85,11.76-12.45,11.47c-6.6-0.28-11.71-5.87-11.43-12.49
	c0.14-3.26,1.55-6.11,3.73-8.19l2.19,2.36c-1.58,1.52-2.6,3.61-2.71,5.97c-0.21,4.85,3.52,8.92,8.35,9.12
	c4.83,0.21,8.89-3.54,9.09-8.38c0.1-2.36-0.74-4.53-2.19-6.18l2.38-2.16C65.43,200.49,66.6,203.49,66.46,206.72"/>
<path class="st0" d="M73.51,166.36l-0.89,3.34l-6.47,0.75l-2.55,9.59l5.24,3.84l-0.89,3.34l-19.79-14.57l0.93-3.5L73.51,166.36z
	 M60.8,178l1.91-7.15l-10.04,1.14L60.8,178z"/>
<path class="st0" d="M73.34,148.44l6.46,3.3l-1.47,2.88l-20.36-10.41l4.66-9.13c1.97-3.86,6.71-5.4,10.55-3.43
	c3.84,1.96,5.33,6.69,3.36,10.54L73.34,148.44z M71.7,134.53c-2.27-1.16-5.04-0.25-6.2,2.02l-3.2,6.25l8.17,4.18l3.2-6.25
	C74.83,138.45,73.97,135.69,71.7,134.53"/>
<polygon class="st0" points="86.61,100.27 89.11,102.3 80.78,112.61 85.92,116.76 93.64,107.21 96.15,109.23 88.43,118.79 
	93.56,122.93 101.89,112.62 104.4,114.65 94.04,127.47 76.24,113.1 "/>
<path class="st0" d="M139.03,87.28c-5.64,3.48-13.02,1.75-16.48-3.88c-3.47-5.62-1.7-12.99,3.94-16.47c2.78-1.71,5.93-2.15,8.87-1.5
	l-0.72,3.14c-2.14-0.46-4.45-0.13-6.46,1.1c-4.13,2.55-5.41,7.92-2.88,12.03c2.54,4.12,7.91,5.38,12.04,2.83
	c2.01-1.24,3.34-3.16,3.89-5.28l3.12,0.76C143.61,82.94,141.79,85.58,139.03,87.28"/>
<path class="st0" d="M159.62,51.55c6.27-2.14,13.08,1.18,15.21,7.43c2.13,6.25-1.21,13.04-7.49,15.19
	c-6.28,2.14-13.08-1.18-15.22-7.43C149.99,60.49,153.35,53.69,159.62,51.55 M166.3,71.12c4.59-1.57,7.03-6.52,5.47-11.09
	c-1.56-4.58-6.52-7-11.11-5.43c-4.59,1.56-7.03,6.52-5.47,11.1C156.75,70.27,161.71,72.69,166.3,71.12"/>
<path class="st0" d="M190.05,44.42l8.85-0.83c6.31-0.59,11.91,4.02,12.5,10.31c0.59,6.29-4.04,11.87-10.35,12.46l-8.85,0.83
	L190.05,44.42z M193.57,47.33l1.54,16.36l5.63-0.53c4.54-0.43,7.87-4.43,7.44-8.95c-0.43-4.52-4.44-7.83-8.98-7.4L193.57,47.33z"/>
<path class="st0" d="M246.42,64.39c0.55,1.06,1.52,1.85,2.78,2.15c2.27,0.54,4.53-0.85,5.06-3.11l3.68-15.55l3.15,0.74l-3.68,15.55
	c-0.94,3.98-4.95,6.44-8.95,5.49c-2.11-0.5-3.81-1.86-4.79-3.62L246.42,64.39z"/>
<polygon class="st0" points="294.88,61.49 293.56,64.43 281.47,59 278.77,65.03 289.98,70.06 288.66,73 277.45,67.97 274.74,73.99 
	286.84,79.42 285.52,82.36 270.48,75.61 279.84,54.74 "/>
<polygon class="st0" points="310.36,69.98 313.02,72.04 306.44,88.37 320.59,77.9 323.25,79.96 316.67,96.29 330.82,85.81 
	333.48,87.87 314.37,102 311.71,99.94 318.27,83.64 304.14,94.08 301.48,92.03 "/>
<polygon class="st0" points="356.24,113.95 353.74,115.97 345.4,105.66 340.27,109.82 347.99,119.37 345.48,121.4 337.76,111.84 
	332.63,116 340.96,126.3 338.45,128.33 328.09,115.51 345.88,101.12 "/>
<polygon class="st0" points="366.47,129.9 367.97,132.78 350.5,141.8 356.75,153.87 353.88,155.35 346.16,140.41 "/>
<path class="st0" d="M383.34,171.54c1.09,3.93-1.2,7.98-5.11,9.07c-3.35,0.93-6.76-0.61-8.36-3.52l-6.74,7.17l-1-3.62l6.58-6.99
	l-1.5-5.42l-7.92,2.19l-0.86-3.12l22.04-6.11L383.34,171.54z M377.37,177.49c2.21-0.61,3.48-2.88,2.87-5.09l-2-7.22l-7.92,2.19
	l2,7.23C372.93,176.8,375.16,178.1,377.37,177.49"/>
<polygon class="st0" points="375.01,203.53 387.9,193.52 388.15,197.42 378.43,204.94 389.02,211.17 389.27,215.07 375.22,206.76 
	365.86,207.35 365.66,204.12 "/>
<path class="st0" d="M373.71,222.53c4.45,0,8.05,3.63,8.05,8.12c0,4.49-3.6,8.11-8.05,8.11c-4.45,0-8.05-3.62-8.05-8.11
	C365.66,226.16,369.26,222.53,373.71,222.53 M373.71,237.63c3.82,0,6.93-3.13,6.93-6.98c0-3.85-3.11-6.98-6.93-6.98
	c-3.81,0-6.93,3.14-6.93,6.98C366.78,234.5,369.89,237.63,373.71,237.63"/>
<path class="st0" d="M233.9,121.12c-0.81-9.4-8.72-16.81-18.33-16.81c-9.61,0-17.52,7.41-18.33,16.81
	c-44.17,8.58-77.62,47.54-77.62,94.18c0,52.91,43.04,95.95,95.95,95.95s95.95-43.04,95.95-95.95
	C311.53,168.67,278.08,129.7,233.9,121.12 M215.58,111.02c6.45,0,11.69,5.25,11.69,11.69c0,6.45-5.24,11.69-11.69,11.69
	c-6.45,0-11.69-5.24-11.69-11.69C203.88,116.26,209.13,111.02,215.58,111.02 M197.91,127.83c2.22,7.66,9.3,13.28,17.67,13.28
	c8.37,0,15.45-5.62,17.67-13.28c37.61,7.59,66.73,38.88,71.02,77.57c-5.8,0.02-9.39-0.14-14.43-2.24
	c-7.75-3.23-14.02-9.57-20.65-16.28c-3.92-3.96-7.96-8.06-12.49-11.68c-12.55-10.03-26-14.9-41.12-14.9
	c-15.15,0-28.61,4.87-41.15,14.9c-4.54,3.62-8.58,7.71-12.49,11.68c-6.63,6.71-12.9,13.05-20.66,16.28
	c-5.03,2.1-8.62,2.26-14.39,2.24C131.18,166.71,160.3,135.41,197.91,127.83 M215.58,304.55c-31.22,0-58.75-16.12-74.7-40.47
	c3.44-0.79,6.9-2.27,9.85-4.29c3.44-2.35,7.72-3.75,11.45-3.75c3.73,0,8.01,1.4,11.45,3.75c4.51,3.09,10.21,4.93,15.23,4.93
	c5.03,0,10.72-1.84,15.23-4.93c3.44-2.35,7.72-3.75,11.45-3.75c3.73,0,8.01,1.4,11.45,3.75c4.51,3.09,10.21,4.93,15.23,4.93
	c5.03,0,10.72-1.84,15.23-4.93c3.44-2.35,7.72-3.75,11.45-3.75c3.73,0,8.01,1.4,11.45,3.75c2.97,2.03,6.45,3.52,9.92,4.3
	C274.31,288.44,246.79,304.55,215.58,304.55 M293.97,257.93c-3.83-0.39-7.5-2.08-9.83-3.67c-4.58-3.13-10.13-4.93-15.23-4.93
	c-5.1,0-10.65,1.8-15.23,4.93c-2.66,1.81-7.06,3.76-11.45,3.76c-4.39,0-8.79-1.94-11.45-3.76c-4.58-3.13-10.13-4.93-15.23-4.93
	c-5.1,0-10.65,1.8-15.23,4.93c-2.66,1.81-7.06,3.76-11.45,3.76c-4.39,0-8.79-1.94-11.45-3.76c-4.58-3.13-10.13-4.93-15.23-4.93
	s-10.65,1.8-15.23,4.93c-2.31,1.58-5.96,3.26-9.76,3.66c-5.5-10.06-9.1-21.3-10.36-33.22h50.74l0.29-3.03
	c0.32-3.31,1.07-6.52,2.21-9.58h71.02c1.14,3.06,1.89,6.27,2.21,9.58l0.29,3.03h50.74C303.08,236.62,299.46,247.86,293.97,257.93
	 M183.35,205.37c1.83-2.94,4.06-5.65,6.68-8.04c6.99-6.39,16.07-9.92,25.56-9.92c9.48,0,18.56,3.52,25.56,9.92
	c2.6,2.39,4.85,5.1,6.67,8.04H183.35z M259.58,217.99c-1.62-9.82-6.5-18.82-13.92-25.6c-8.24-7.53-18.92-11.68-30.08-11.68
	c-11.17,0-21.85,4.15-30.08,11.68c-7.42,6.78-12.29,15.79-13.92,25.6h-45.2c-0.03-0.89-0.04-1.79-0.04-2.69
	c0-1.07,0.02-2.14,0.06-3.2c0.45,0,0.88,0,1.31,0c5.83,0,10.21-0.29,16.14-2.76c9-3.75,16.04-10.87,22.84-17.76
	c3.78-3.82,7.69-7.78,11.91-11.15c11.31-9.04,23.4-13.43,36.97-13.43c13.53,0,25.62,4.39,36.93,13.43
	c4.22,3.38,8.13,7.33,11.91,11.15c6.8,6.89,13.84,14.01,22.84,17.76c6.38,2.66,10.98,2.79,17.5,2.75c0.04,1.06,0.06,2.13,0.06,3.2
	c0,0.9-0.02,1.79-0.05,2.69H259.58z"/>
<path class="st0" d="M375.59,231.41c0.94-0.38,1.55-1.27,1.55-2.26c0-1.32-1.1-2.43-2.41-2.43h-3.68v7.86h1.19v-2.99h2.02l1.27,2.99
	h1.26l-1.34-3.11L375.59,231.41z M374.68,230.37h-2.45v-2.44h2.49c0.39,0,0.74,0.17,0.97,0.48c0.24,0.32,0.3,0.73,0.19,1.12
	C375.74,230.03,375.24,230.37,374.68,230.37"/>
</svg>
