<?xml version="1.0" encoding="utf-8"?>
<!-- Generator: Adobe Illustrator 27.2.0, SVG Export Plug-In . SVG Version: 6.00 Build 0)  -->
<svg version="1.1" id="Layer_1" xmlns="http://www.w3.org/2000/svg" xmlns:xlink="http://www.w3.org/1999/xlink" x="0px" y="0px"
	 viewBox="0 0 437 186.5" style="enable-background:new 0 0 437 186.5;" xml:space="preserve">
<style type="text/css">
	.st0{fill:#FFFFFF;}
</style>
<g>
	<path class="st0" d="M275,118.06c0.17,0.17,0.35,0.17,0.69,0.17c1.72,0,4.48-3.45,4.48-6.21c0-1.03-0.52-1.55-1.21-1.55
		c-1.9,0-4.66,3.79-4.66,6.21C274.31,117.37,274.48,117.89,275,118.06z"/>
	<path class="st0" d="M381.3,122.53c-2.14-0.96-0.27,2.32-7.87,11.56c-7.6,9.24-18.11,13.45-28.29,13.45
		c-1.85,0-3.72-0.12-5.59-0.33c4.13-7.48,2.39-24.35-1.62-25.18c-3.62-0.69-2.41,1.73-2.59,1.9c-6.21,10.18-8.79,12.59-11.04,15.52
		c-0.86-0.34-1.9-0.52-2.59-0.52c-3.62,0-6.21,3.1-6.21,6.21c0,0.81,0.12,1.49,0.35,2.17c-2.98,2.22-7.11,4.91-8.98,4.91
		c-0.69,0-1.38-0.17-1.38-1.38c0-1.38,0.35-5.86,18.28-29.84l12.24-15c0,0,0.86-1.38,0.86-2.93c0-0.69-0.35-2.41-1.55-2.41
		c-0.34,0-0.86,0.17-1.55,0.86c-0.92,0-24.61,28.2-29.97,43.85c-3.25,2.17-9.17,6.85-11.42,6.85c-0.52,0-1.38-0.17-1.38-1.55
		c0-1.38,0.52-5.52,15.35-25.52c0.17-0.17,0.52-1.04,0.52-1.73c0-0.52-0.17-1.03-1.21-1.03c-3.97,0-6.21,3.79-7.93,6.38
		c0.86-4.83-2.59-7.42-6.04-5.86c0,0-5.17,0.86-14.83,12.76c0,0-4.29,5.35-5.73,10.63c-3.04,2.38-8.48,6.17-10.3,5.93
		c-0.52,0-1.38-0.17-1.38-1.38c0-0.34,0-0.69,0.17-1.21c0,0,1.21-5.52,15.01-24.49c0.17-0.17,0.69-1.04,0.69-1.73
		c0-0.69-0.35-1.03-1.21-1.03c-1.9,0-4.48,1.55-5.52,2.76c-5.3,7.63-9.34,14.67-11.03,20.34c-2.48,2.18-8.78,7.01-11.39,6.74
		c-0.52,0-1.38-0.17-1.38-1.38c0-1.55,0.52-5.86,18.11-29.49h2.93c0.86,0,2.42,0,2.42-1.21c0-1.04-1.55-1.04-2.42-1.04h-1.21
		l10.69-13.11c0,0,0.86-1.38,0.86-2.93c0-1.38-0.69-2.59-1.9-2.59c-0.69,0-3.1,2.07-15.69,18.63h-9.14c-1.04,0-2.24,0-2.24,1.04
		c0,1.21,1.21,1.21,2.24,1.21h7.41c-6.49,8.65-11.92,17.52-13.96,24.27c-3.06,2.17-9.68,6.6-10.87,6.6c-0.69,0-1.38-0.17-1.38-2.59
		c0-0.52,0.34-4.14,13.28-21.9c0.17-0.17,0.35-0.86,0.35-1.72c0-2.24-1.04-4.66-6.9-3.28c-6.73,2.76-12.25,7.07-17.08,12.25
		c2.42-3.45,7.59-9.31,7.59-11.56c0-0.52-0.17-1.03-0.86-1.03c-5.14,0-10.66,8.89-15.38,19.53c-2.94,2.94-4.04,4-8.59,6.86
		c-3.28,2.07-10.69,5-11.73,2.76c-0.35-1.38-0.17-3.1,0.52-5c0.69-0.17,1.22-0.4,1.94-0.63c7.59-3.62,22.38-9.38,18.24-20.93
		c-1.21-3.28-4.66-3.28-7.24-1.9c-6.36,2.96-15.5,15.54-16.68,23.96c-1.41,0.49-3.08,0.96-4.36,0.87
		c4.66-7.07,2.93-25.01-1.21-25.87c-3.62-0.69-2.41,1.73-2.59,1.9c-6.21,10.18-8.8,12.59-11.04,15.52c-0.86-0.34-1.9-0.52-2.59-0.52
		c-3.62,0-6.21,3.1-6.21,6.21c0,0.9,0.15,1.66,0.44,2.41c-0.94,0.25-1.88,0.41-2.68,0.35c4.66-7.07,2.93-25.01-1.21-25.87
		c-3.62-0.69-2.42,1.73-2.59,1.9c-6.21,10.18-8.8,12.59-11.04,15.52c-0.86-0.34-1.9-0.52-2.59-0.52c-3.62,0-6.21,3.1-6.21,6.21
		c0,0.34,0.02,0.65,0.06,0.96c-7.47,3.47-19.69,10.25-27.14,10.25c-3.79,0-9.49-2.59-9.49-10.35c0-10.18,14.14-21.73,26.21-23.8
		c0.69,1.03,3.62,2.76,6.21,2.76c0.52,0,3.79-0.17,3.79-2.76c0-1.73-1.9-2.42-4.14-2.42c-2.07,0-3.28,0-4.83,0.17
		c-1.72-3.79,0.86-7.93,3.45-10.52c4.66,1.55,10,5.17,15.87,5.17c3.79,0,11.73-2.07,11.73-8.28c0-5.35-5.69-6.9-9.14-6.9
		c-7.24,0-14.49,2.76-20.18,6.73c-10.69-4.83-22.77-9.31-34.67-9.31c-14.01,0-26.69,7.43-33.7,20.84c0,0-3.44,5.88-2.63,6.24
		c2.14,0.96,0.27-2.32,7.87-11.56c7.6-9.24,18.11-13.45,28.29-13.45c11.04,0,22.42,4.14,32.94,8.8c-3.62,2.76-6.21,7.76-2.93,12.59
		c-11.56,1.72-28.63,10.18-28.63,24.83c0,9.14,6.55,13.45,13.97,13.45c8.73,0,21-6.13,27.78-10.45c0.1,0.2,0.21,0.41,0.33,0.62
		c2.24,3.79,6.38,5.69,10.52,5.52c3.45-0.17,6.38,0.17,10.69-4.48c0.35,0.17,0.86,0.17,1.21,0.17c1.34,0,2.61-0.33,3.71-0.79
		c2.29,3.51,6.28,5.27,10.26,5.1c3.45-0.17,6.38,0.17,10.69-4.48c0.35,0.17,0.86,0.17,1.21,0.17c1.63,0,3.16-0.48,4.4-1.11
		c0.01,0.71,0.09,1.37,0.25,1.97c2.07,7.24,12.07,2.07,15.87,0c2.17-1.27,3.77-2.3,5.28-3.53c-0.04,0.09-0.07,0.17-0.1,0.26
		c-0.69,1.73-0.86,3.1-0.86,4.31c0,1.38,0.34,2.24,0.86,2.24c1.38,0,1.9-2.59,4.31-6.55c5.69-9.31,14.32-18.8,24.32-22.59
		c0.52-0.17,1.04-0.34,1.55-0.34c0.34,0.52-0.52,1.72-1.55,3.1c-6.04,9.14-10.18,16.04-10.18,21.73c0,3.45,2.07,5,3.97,5
		c-0.32,0,1.3,0.89,10.55-6.06c-0.13,0.8-0.2,1.56-0.2,2.27c0,0-0.35,3.79,3.79,3.79c0.32,0,2.34,1.07,11.1-6.32
		c-0.15,0.89-0.23,1.73-0.23,2.53c0,0-0.17,3.62,3.79,3.79c0.31,0,3.13,0.14,10.19-5.58c-0.01,0.2-0.02,0.39-0.02,0.58
		c0,1.55,0.17,4.66,3.45,4.66c1.04,0,2.24-0.17,3.96-1.21c0,0,7.31-4.42,11.13-8.03c-0.79,2.44-0.95,3.95-0.95,5.79
		c0,0,0.17,3.79,3.79,3.79c0-0.16,2.54,0.72,10.93-6.09c-0.16,0.82-0.24,1.59-0.24,2.29c0,0-0.35,3.97,3.8,3.79
		c0.31,0,2.71,0.42,10.1-5.53c2.26,3.68,6.34,5.52,10.42,5.36c3.45-0.17,6.38,0.17,10.69-4.48l0.46-0.63
		c2.25,0.29,4.5,0.45,6.75,0.45c14.01,0,26.69-7.43,33.7-20.84C378.67,128.78,382.11,122.9,381.3,122.53z M205.84,127.89
		c1.72-1.38,3.62-2.41,4.14-1.38c2.07,8.28-8.97,13.97-16.9,17.25C196.01,137.72,200.84,131.34,205.84,127.89z M132.03,122.55
		c-0.34,0.86-4.48,0.17-5-0.69C127.38,121.51,132.55,121.34,132.03,122.55z M143.25,101.68c1.38,0,10.69-0.34,10.69,4.66
		c0,4.31-6.04,6.21-10.18,6.21c-4.48,0-8.45-2.76-13.11-4.48c-0.17,0-0.35-0.17-0.52-0.17
		C133.59,104.78,138.41,102.37,143.25,101.68z M136.98,144.94c-0.13,0.05-0.26,0.1-0.39,0.16c0.38-2.15,2.37-4.1,4.07-4.1
		c0.34,0,0.52,0.17,0.86,0.17c-0.36,0.39-0.72,0.79-1.09,1.2c-0.4,0.33-0.81,0.66-1.21,0.99c-0.53,0.44-1.05,0.87-1.65,1.22
		C137.36,144.7,137.17,144.82,136.98,144.94z M146,152.04c-3.45,0-7.59-1.9-8.97-4.31c1.72-1.21,4.14-3.28,6.38-5.52
		c2.76,1.9,6.21,4.48,9.49,6.21C151.52,150.49,149.28,152.04,146,152.04z M154.28,146.52c-2.93-1.38-6.21-3.97-9.31-6.04
		c0.34-0.17,0.52-0.52,0.86-0.86c3.28-3.45,6.38-8.11,9.31-12.42C156.52,127.38,157.38,141.17,154.28,146.52z M162.56,146.69
		c-0.17-0.35-0.17-0.52-0.17-0.86c0-2.42,2.24-4.83,4.14-4.83c0.34,0,0.52,0.17,0.86,0.17
		C165.66,143.07,163.76,145.14,162.56,146.69z M171.87,152.04c-3.21,0-7.01-1.64-8.63-3.81c0.88-0.57,1.52-1.16,1.85-1.58
		c0.35-0.33,0.66-0.72,0.94-1.05c0.35-0.37,0.68-0.75,1.02-1.11c0.14-0.15,0.28-0.3,0.42-0.45c0.04-0.04,0.07-0.07,0.11-0.11
		c0.28-0.27,0.6-0.5,0.81-0.82c0.31-0.29,0.61-0.59,0.91-0.89c2.76,1.9,6.21,4.48,9.49,6.21
		C177.39,150.49,175.15,152.04,171.87,152.04z M180.15,146.52c-2.93-1.38-6.21-3.97-9.31-6.04c0.34-0.17,0.52-0.52,0.86-0.86
		c3.28-3.45,6.38-8.11,9.31-12.42C182.39,127.38,183.25,141.17,180.15,146.52z M279.83,149.11c-3.28,2.07-4.83,2.59-5.35,2.41
		c-0.52-0.17-0.52-0.86-0.52-1.21c0-5,7.24-12.59,7.24-12.59c2.07-2.24,9.83-11.21,12.76-11.21c1.72,0,1.9,2.41,1.9,3.97
		C295.86,138.76,280.51,148.59,279.83,149.11z M317.76,145.83c0-2.42,2.24-4.83,4.14-4.83c0.34,0,0.52,0.17,0.86,0.17
		c-0.32,0.35-0.64,0.71-0.97,1.06c-0.41,0.32-0.82,0.66-1.21,1.02c-0.6,0.55-1.23,1.08-1.76,1.7c-0.27,0.24-0.63,0.54-1.07,0.9
		V145.83z M327.25,152.04c-3.45,0-7.59-1.9-8.97-4.31c1.72-1.21,4.14-3.28,6.38-5.52c2.76,1.9,6.21,4.48,9.48,6.21
		C332.77,150.49,330.53,152.04,327.25,152.04z M335.53,146.52c-2.93-1.38-6.21-3.97-9.31-6.04c0.35-0.17,0.52-0.52,0.86-0.86
		c3.28-3.45,6.38-8.11,9.31-12.42C337.77,127.38,338.63,141.17,335.53,146.52z"/>
</g>
<path class="st0" d="M26.82,74.82c-0.02,1.87,0.22,3.2,0.72,4c0.5,0.81,1.4,1.26,2.71,1.36l1.88,0.15c0.27,0.03,0.46,0.1,0.55,0.21
	c0.09,0.11,0.14,0.35,0.14,0.7v1.25c0,0.38-0.05,0.63-0.15,0.76c-0.1,0.13-0.3,0.18-0.6,0.15c-2.77-0.38-5.15-0.56-7.13-0.56
	c-2.04,0-4.44,0.19-7.2,0.56c-0.32,0.03-0.53-0.03-0.63-0.15c-0.1-0.13-0.15-0.38-0.15-0.76v-1.25c0-0.35,0.05-0.59,0.15-0.7
	c0.1-0.11,0.31-0.18,0.63-0.21l2.09-0.15c1.42-0.08,2.43-0.54,3.04-1.38c0.61-0.84,0.93-2.27,0.98-4.26l0.75-35.28
	c0.04-2.63-0.27-4.52-0.94-5.66c-0.67-1.14-1.89-1.77-3.64-1.9l-1.85-0.15c-0.37-0.02-0.61-0.1-0.72-0.23
	c-0.11-0.13-0.17-0.37-0.17-0.72v-1.32c0-0.4,0.05-0.67,0.15-0.79c0.1-0.13,0.31-0.18,0.63-0.15c2.17,0.37,4.04,0.56,5.62,0.56
	c1.55,0,3.43-0.19,5.62-0.56c0.21,0,0.35,0.04,0.45,0.12c0.09,0.08,0.18,0.24,0.27,0.5L44.63,71.8h-0.04l14.07-42.4
	c0.16-0.43,0.3-0.72,0.43-0.86c0.12-0.14,0.3-0.21,0.53-0.21c2.27,0.37,4.22,0.56,5.83,0.56c1.64,0,3.59-0.19,5.87-0.56
	c0.29-0.03,0.49,0.02,0.6,0.13c0.1,0.11,0.15,0.37,0.15,0.78v1.25c0,0.33-0.05,0.55-0.15,0.66c-0.1,0.11-0.3,0.2-0.59,0.25
	l-2.1,0.15c-1.43,0.21-2.42,0.67-2.99,1.4c-0.57,0.73-0.83,1.88-0.78,3.47l0.88,38.88c0.02,1.56,0.32,2.7,0.9,3.43
	c0.58,0.73,1.54,1.21,2.88,1.44l2.01,0.15c0.29,0.05,0.49,0.13,0.58,0.25c0.09,0.11,0.14,0.34,0.14,0.66v1.25
	c0,0.38-0.05,0.63-0.15,0.76c-0.1,0.13-0.3,0.18-0.6,0.15c-3.37-0.38-6.27-0.56-8.71-0.56c-2.44,0-5.33,0.19-8.67,0.56
	c-0.3,0.03-0.5-0.03-0.6-0.15c-0.1-0.13-0.15-0.38-0.15-0.76v-1.25c0-0.35,0.05-0.59,0.15-0.7c0.1-0.11,0.3-0.18,0.6-0.21l2.12-0.15
	c1.43-0.08,2.43-0.48,2.98-1.21c0.56-0.73,0.81-1.95,0.77-3.66l-0.92-39.35h-0.04L44.16,82.51c-0.25,0.74-0.43,1.19-0.55,1.36
	c-0.11,0.17-0.31,0.25-0.58,0.25h-0.03c-0.28,0-0.46-0.08-0.57-0.25c-0.1-0.17-0.29-0.62-0.56-1.36L27.48,40.33h-0.03L26.82,74.82z
	 M84.59,76.02l12.92-44.74l1.97-1.41l1.43-1c0.27-0.2,0.45-0.29,0.54-0.25c0.09,0.04,0.19,0.24,0.31,0.59l15.31,46.81
	c0.59,1.68,1.21,2.89,1.86,3.61c0.65,0.73,1.5,1.14,2.55,1.24l1.57,0.15c0.34,0.03,0.57,0.11,0.68,0.25
	c0.11,0.14,0.17,0.39,0.17,0.74v1.1c0,0.43-0.06,0.71-0.17,0.84c-0.11,0.13-0.34,0.18-0.68,0.15c-3.05-0.37-5.7-0.56-7.93-0.56
	c-2.26,0-4.93,0.19-8,0.56c-0.3,0.03-0.5-0.02-0.62-0.13c-0.11-0.12-0.17-0.38-0.17-0.78v-1.25c0-0.28,0.06-0.48,0.17-0.61
	c0.11-0.13,0.32-0.23,0.62-0.3l1.74-0.15c1.18-0.25,1.92-0.75,2.2-1.49c0.29-0.74,0.19-1.86-0.29-3.37L106.5,62.3h-15l-3.39,12.23
	c-0.59,2.04-0.72,3.53-0.39,4.47c0.33,0.94,1.18,1.57,2.55,1.87l2.05,0.15c0.34,0.05,0.56,0.14,0.67,0.27
	c0.1,0.13,0.15,0.34,0.15,0.64v1.25c0,0.38-0.05,0.63-0.15,0.76c-0.1,0.13-0.3,0.18-0.6,0.15c-2.71-0.37-5.05-0.56-7.01-0.56
	c-1.96,0-4.3,0.19-7.01,0.56c-0.3,0.03-0.5-0.02-0.6-0.13c-0.1-0.12-0.15-0.38-0.15-0.78v-1.25c0-0.3,0.04-0.52,0.14-0.64
	c0.09-0.13,0.27-0.21,0.55-0.27l1.74-0.15c1.21-0.25,2.16-0.75,2.87-1.49C83.6,78.65,84.15,77.53,84.59,76.02z M92.35,59.08h13.21
	l-7.01-22.42h0.02L92.35,59.08z M135.32,76V37.13c0-1.71-0.29-2.94-0.87-3.68c-0.58-0.74-1.59-1.19-3.02-1.34h-2.08
	c-0.29-0.02-0.5-0.1-0.61-0.23c-0.11-0.13-0.17-0.35-0.17-0.68v-1.25c0-0.38,0.06-0.63,0.17-0.76c0.11-0.13,0.32-0.18,0.62-0.15
	l5.4,0.56h3.45h0.31l9.67-0.42c4.12,0,7.51,1.21,10.16,3.62c2.65,2.42,3.98,5.49,3.98,9.23c0,4.04-1.74,7.39-5.23,10.03
	c-1.78,1.35-3.81,2.35-6.08,3.01c2.07,1.15,3.86,3.12,5.37,5.92L164.51,76c0.91,1.69,1.77,2.9,2.58,3.63
	c0.81,0.73,1.73,1.15,2.75,1.25l1.61,0.15c0.34,0.03,0.56,0.11,0.67,0.25c0.1,0.14,0.15,0.39,0.15,0.74v1.1
	c0,0.41-0.05,0.68-0.15,0.82c-0.1,0.14-0.32,0.2-0.67,0.17l-4.17-0.35c-0.66,0-1.23,0.06-1.7,0.17c-0.47,0.11-1.03,0.17-1.69,0.17
	c-0.59,0-1.15-0.25-1.66-0.73c-0.51-0.48-1.11-1.33-1.8-2.53l-8.57-15.72c-2-3.71-3.59-6.06-4.75-7.06c-1.16-1-2.89-1.5-5.19-1.5
	h-0.85V76c0,1.72,0.29,2.94,0.87,3.67c0.58,0.73,1.58,1.13,3.02,1.21l2.11,0.15c0.29,0.03,0.49,0.1,0.6,0.23
	c0.1,0.13,0.15,0.36,0.15,0.68v1.25c0,0.4-0.05,0.66-0.15,0.78c-0.1,0.11-0.3,0.16-0.6,0.13c-3.43-0.37-6.39-0.56-8.89-0.56
	c-2.48,0-5.42,0.19-8.82,0.56c-0.3,0.03-0.5-0.02-0.61-0.15c-0.11-0.13-0.17-0.38-0.17-0.76v-1.25c0-0.33,0.06-0.55,0.17-0.66
	c0.11-0.11,0.32-0.19,0.61-0.25l2.08-0.15c1.43-0.23,2.44-0.72,3.04-1.46C135.04,78.7,135.32,77.56,135.32,76z M141.07,52.93
	c1.01,0.25,2.06,0.38,3.16,0.38c3.53,0,6.34-0.93,8.44-2.79c2.1-1.86,3.15-4.35,3.15-7.47c0-3.22-0.94-5.73-2.82-7.56
	c-1.79-1.67-4.2-2.57-7.22-2.7c-1.84-0.07-3.08,0.28-3.73,1.06c-0.65,0.79-0.98,2.3-0.98,4.56V52.93z M182.66,76.02l12.92-44.74
	l1.97-1.41l1.43-1c0.27-0.2,0.45-0.29,0.54-0.25c0.09,0.04,0.19,0.24,0.31,0.59l15.31,46.81c0.59,1.68,1.21,2.89,1.86,3.61
	c0.65,0.73,1.5,1.14,2.55,1.24l1.57,0.15c0.34,0.03,0.57,0.11,0.68,0.25c0.11,0.14,0.17,0.39,0.17,0.74v1.1
	c0,0.43-0.06,0.71-0.17,0.84c-0.11,0.13-0.34,0.18-0.68,0.15c-3.05-0.37-5.7-0.56-7.93-0.56c-2.26,0-4.93,0.19-8,0.56
	c-0.3,0.03-0.5-0.02-0.62-0.13c-0.11-0.12-0.17-0.38-0.17-0.78v-1.25c0-0.28,0.06-0.48,0.17-0.61c0.11-0.13,0.32-0.23,0.62-0.3
	l1.74-0.15c1.18-0.25,1.92-0.75,2.2-1.49c0.29-0.74,0.19-1.86-0.29-3.37l-4.27-13.72h-15l-3.39,12.23
	c-0.59,2.04-0.72,3.53-0.39,4.47c0.33,0.94,1.18,1.57,2.55,1.87l2.05,0.15c0.34,0.05,0.56,0.14,0.67,0.27
	c0.1,0.13,0.15,0.34,0.15,0.64v1.25c0,0.38-0.05,0.63-0.15,0.76c-0.1,0.13-0.3,0.18-0.6,0.15c-2.71-0.37-5.05-0.56-7.01-0.56
	c-1.96,0-4.3,0.19-7.01,0.56c-0.3,0.03-0.5-0.02-0.6-0.13c-0.1-0.12-0.15-0.38-0.15-0.78v-1.25c0-0.3,0.04-0.52,0.14-0.64
	c0.09-0.13,0.27-0.21,0.55-0.27l1.74-0.15c1.21-0.25,2.16-0.75,2.87-1.49C181.67,78.65,182.23,77.53,182.66,76.02z M190.43,59.08
	h13.21l-7.01-22.42h0.02L190.43,59.08z M234.45,76V32.8h-8.51c-2.26,0-3.91,0.55-4.95,1.66c-1.04,1.11-1.72,3.02-2.04,5.74
	c-0.07,0.31-0.16,0.53-0.27,0.66c-0.11,0.13-0.27,0.19-0.47,0.19h-0.95c-0.25,0-0.42-0.06-0.53-0.19c-0.1-0.13-0.15-0.34-0.15-0.65
	c0.25-2.53,0.42-4.72,0.49-6.56c0.09-1.84,0.14-4.03,0.14-6.56c0-0.36,0.06-0.61,0.19-0.77c0.13-0.15,0.34-0.23,0.64-0.23h1.08
	c0.23,0,0.41,0.08,0.54,0.22c0.13,0.15,0.23,0.4,0.3,0.75h0.13c0.2,1,0.7,1.67,1.47,2.01c0.78,0.34,2.24,0.51,4.39,0.51h20.35
	c2.88,0,4.85-0.17,5.91-0.51c1.06-0.34,1.77-1.01,2.11-2.01h0.14c0.14-0.35,0.27-0.6,0.4-0.75c0.13-0.15,0.27-0.22,0.44-0.22h1.08
	c0.3,0,0.52,0.08,0.64,0.23c0.13,0.15,0.19,0.41,0.19,0.77c-0.41,2.51-0.71,4.68-0.89,6.52c-0.18,1.84-0.34,4.04-0.48,6.6
	c0,0.31-0.05,0.53-0.15,0.65c-0.1,0.13-0.27,0.19-0.52,0.19h-0.94c-0.27,0-0.46-0.06-0.57-0.19c-0.11-0.13-0.18-0.34-0.2-0.66
	c0.07-2.72-0.15-4.64-0.66-5.74c-0.51-1.1-1.45-1.66-2.81-1.66h-9.78V76c0,1.59,0.28,2.74,0.85,3.47s1.53,1.19,2.89,1.4l2.04,0.15
	c0.29,0.05,0.49,0.13,0.58,0.25c0.09,0.11,0.14,0.34,0.14,0.66v1.25c0,0.38-0.05,0.63-0.15,0.76c-0.1,0.13-0.3,0.18-0.59,0.15
	c-3.34-0.37-6.22-0.56-8.64-0.56c-2.41,0-5.28,0.19-8.61,0.56c-0.29,0.03-0.49-0.02-0.6-0.15c-0.1-0.13-0.15-0.38-0.15-0.76v-1.25
	c0-0.33,0.04-0.55,0.13-0.66c0.09-0.11,0.28-0.2,0.58-0.25l2.04-0.15c1.36-0.21,2.33-0.68,2.89-1.42
	C234.17,78.74,234.45,77.59,234.45,76z M268.74,76V37.13c0-1.59-0.29-2.74-0.87-3.47c-0.58-0.73-1.59-1.2-3.02-1.4l-2.11-0.15
	c-0.3-0.05-0.5-0.13-0.6-0.25c-0.1-0.11-0.15-0.33-0.15-0.66v-1.25c0-0.38,0.05-0.63,0.15-0.76c0.1-0.13,0.3-0.18,0.6-0.15
	c3.44,0.37,6.4,0.56,8.91,0.56c2.46,0,5.4-0.19,8.84-0.56c0.29-0.03,0.49,0.02,0.6,0.15c0.1,0.13,0.15,0.38,0.15,0.76v1.25
	c0,0.35-0.05,0.59-0.15,0.7c-0.1,0.11-0.3,0.18-0.6,0.21l-2.08,0.15c-1.46,0.08-2.47,0.48-3.05,1.21c-0.58,0.73-0.87,1.95-0.87,3.66
	v15.67h27V37.12c0-1.71-0.29-2.93-0.87-3.66c-0.58-0.73-1.6-1.13-3.05-1.21l-2.08-0.15c-0.3-0.02-0.5-0.09-0.6-0.21
	c-0.1-0.11-0.15-0.35-0.15-0.7v-1.25c0-0.38,0.05-0.63,0.15-0.76c0.1-0.13,0.3-0.18,0.6-0.15c3.44,0.37,6.39,0.56,8.88,0.56
	c2.48,0,5.44-0.19,8.88-0.56c0.29-0.03,0.49,0.02,0.6,0.15c0.1,0.13,0.15,0.38,0.15,0.76v1.25c0,0.33-0.05,0.55-0.15,0.66
	c-0.1,0.11-0.3,0.2-0.6,0.25l-2.11,0.15c-1.43,0.2-2.44,0.67-3.02,1.4c-0.58,0.73-0.87,1.88-0.87,3.47V76
	c0,1.59,0.29,2.74,0.87,3.47c0.58,0.73,1.58,1.2,3.02,1.4l2.11,0.15c0.29,0.05,0.49,0.13,0.6,0.25c0.1,0.11,0.15,0.34,0.15,0.66
	v1.25c0,0.38-0.05,0.63-0.15,0.76c-0.1,0.13-0.3,0.18-0.6,0.15c-3.44-0.37-6.41-0.56-8.91-0.56c-2.46,0-5.41,0.19-8.84,0.56
	c-0.3,0.03-0.5-0.02-0.6-0.15c-0.1-0.13-0.15-0.38-0.15-0.76v-1.25c0-0.35,0.05-0.59,0.15-0.7c0.1-0.11,0.3-0.18,0.6-0.21l2.08-0.15
	c1.45-0.08,2.47-0.48,3.05-1.21c0.58-0.73,0.87-1.96,0.87-3.67V56.01h-27V76c0,1.72,0.29,2.94,0.87,3.67
	c0.58,0.73,1.6,1.13,3.05,1.21l2.08,0.15c0.29,0.03,0.49,0.1,0.6,0.21c0.1,0.11,0.15,0.35,0.15,0.7v1.25c0,0.38-0.05,0.63-0.15,0.76
	c-0.1,0.13-0.3,0.18-0.6,0.15c-3.44-0.37-6.39-0.56-8.88-0.56c-2.48,0-5.44,0.19-8.88,0.56c-0.3,0.03-0.5-0.02-0.6-0.15
	c-0.1-0.13-0.15-0.38-0.15-0.76v-1.25c0-0.33,0.05-0.55,0.15-0.66c0.1-0.11,0.3-0.2,0.6-0.25l2.11-0.15
	c1.43-0.21,2.44-0.68,3.04-1.42C268.45,78.74,268.74,77.59,268.74,76z M322.76,76.36c-4.56-5.17-6.84-11.48-6.84-18.95
	c0-8.26,2.5-15.24,7.49-20.95c4.99-5.7,11.09-8.55,18.29-8.55c6.61,0,12.2,2.58,16.75,7.74s6.84,11.48,6.84,18.96
	c0,8.25-2.5,15.23-7.49,20.94c-4.99,5.71-11.1,8.56-18.33,8.56C332.89,84.11,327.31,81.53,322.76,76.36z M353.91,74.23
	c3.26-4.45,4.89-10.17,4.89-17.17c0-7.63-1.76-13.86-5.28-18.69c-3.52-4.83-8.08-7.24-13.68-7.24c-5.12,0-9.3,2.22-12.55,6.66
	c-3.25,4.44-4.87,10.16-4.87,17.18c0,7.62,1.76,13.85,5.28,18.68c3.52,4.83,8.06,7.25,13.61,7.25
	C346.45,80.9,350.65,78.68,353.91,74.23z M377.7,73.83c0,1.89,0.29,3.24,0.87,4.05c0.58,0.81,1.6,1.25,3.05,1.32l2.08,0.15
	c0.29,0.03,0.49,0.1,0.6,0.21c0.1,0.11,0.15,0.35,0.15,0.7v1.25c0,0.38-0.05,0.63-0.15,0.76c-0.1,0.13-0.3,0.18-0.6,0.15
	c-2.88-0.38-5.38-0.56-7.5-0.56c-2.1,0-4.6,0.19-7.5,0.56c-0.3,0.03-0.5-0.03-0.6-0.15c-0.1-0.13-0.15-0.38-0.15-0.76v-1.25
	c0-0.35,0.05-0.59,0.15-0.7c0.1-0.11,0.3-0.18,0.6-0.21l2.08-0.15c1.45-0.08,2.47-0.54,3.05-1.38c0.58-0.85,0.87-2.27,0.87-4.26
	V33.31l-0.21-0.19c-2.14-1.89-4.1-2.79-5.88-2.69h-0.82c-0.48,0.03-0.8-0.03-0.96-0.17c-0.16-0.14-0.24-0.42-0.24-0.85v-1.05
	c0-0.42,0.06-0.71,0.17-0.85c0.11-0.14,0.34-0.19,0.68-0.17c2.27,0.37,4.22,0.56,5.88,0.56c1.62,0,3.58-0.19,5.88-0.56
	c0.23,0,0.6,0.36,1.12,1.08l30,41.94V35.97c0-1.9-0.29-3.25-0.87-4.05c-0.58-0.81-1.59-1.25-3.02-1.33l-2.11-0.15
	c-0.3-0.02-0.5-0.09-0.6-0.21c-0.1-0.11-0.15-0.35-0.15-0.7v-1.25c0-0.38,0.05-0.63,0.15-0.76c0.1-0.13,0.3-0.18,0.6-0.15
	c2.89,0.37,5.38,0.56,7.48,0.56c2.09,0,4.59-0.19,7.48-0.56c0.29-0.03,0.5,0.02,0.61,0.13c0.11,0.11,0.17,0.37,0.17,0.78v1.25
	c0,0.33-0.06,0.56-0.17,0.68c-0.11,0.13-0.32,0.2-0.61,0.23l-2.08,0.15c-1.43,0.08-2.44,0.54-3.02,1.38
	c-0.58,0.84-0.87,2.26-0.87,4.25v46.51c0,0.64-0.02,1.02-0.07,1.17c-0.05,0.14-0.19,0.21-0.42,0.21h-0.03
	c-0.28,0-0.68-0.34-1.21-1.03L377.7,35.84V73.83z"/>
</svg>
