<svg xmlns="http://www.w3.org/2000/svg" width="256" height="256"><path fill-opacity=".016" d="M0 128.004v128.004l128.25-.254 128.25-.254.254-127.75L257.008 0H0v128.004m.485.496c0 70.4.119 99.053.265 63.672.146-35.38.146-92.98 0-128C.604 29.153.485 58.1.485 128.5" fill="#1976D2" fill-rule="evenodd"/><path fill-opacity=".135" d="M.015 120.75c.009 66.412.358 120.211.777 119.552.42-.66 4.857-1.608 9.896-2.114 10.969-1.1 15.254-3.334 18.17-9.476 1.1-2.316 2.266-6.687 2.59-9.712.325-3.025 1.257-36.775 2.073-75C35.883 33.244 35.85 31.981 30.379 23.662c-3.104-4.72-8.603-7.299-17.379-8.149C1.263 14.376 1.865 14.81 2.203 7.719L2.5 1.5l7 .5c10.795.771 35.253.592 42.58-.311l6.58-.812 33.327 97.812c18.33 53.796 33.676 98.486 34.103 99.311.689 1.333.837 1.333 1.325 0 .302-.825 14.953-44.925 32.557-98 17.604-53.075 32.401-97.103 32.882-97.839.723-1.108 2.564-1.127 10.636-.111 8.974 1.129 13.365 1.094 44.01-.36l4-.19v12l-9.448 1.248c-11.795 1.558-16.036 4.025-18.64 10.843-1.725 4.518-1.727 8.016-.026 90.804 1.946 94.772 2.517 107.584 5.015 112.413 2.731 5.283 8.075 8.067 17.917 9.338l8.682 1.121.134 4.616.133 4.617.779-5c.428-2.75.818-58.662.866-124.25L257 0H0l.015 120.75m.469.25c0 66.275.12 93.387.266 60.25.146-33.138.146-87.363 0-120.5C.604 27.612.484 54.725.484 121m159.595 19.281c-18.931 57.321-35.276 106.582-36.322 109.469-1.56 4.31-2.323 5.25-4.257 5.25-1.928 0-2.712-.955-4.311-5.25-3.091-8.305-64.01-187.189-64.748-190.127-2.411-9.607-2.892.669-4.544 97.021-.995 57.995-.947 64.674.504 69.664 1.063 3.656 2.626 6.378 4.631 8.066 3.056 2.571 4.778 3.041 15.218 4.156l5.75.614v6.428c0 7.4.757 7.061-12 5.375-10.272-1.358-36.017-1.292-48.193.124-8.35.971-10.188.937-10.909-.202-.594-.937-.872-.342-.883 1.885L0 256.008l128.25-.254 128.25-.254.313-3.25c.176-1.826-.152-3.25-.75-3.25-.584 0-1.063.733-1.063 1.629 0 1.424-.914 1.536-7.25.891-20.842-2.125-49.887-2.125-70.551-.002l-7.301.751.301-6.385.301-6.384 5.5-.737a1102.14 1102.14 0 0110.46-1.342c6.809-.833 12.045-5.94 13.066-12.745 1.053-7.024-3.204-188.708-4.42-188.645-.333.018-16.095 46.93-35.027 104.25M.232 253c0 1.925.206 2.713.457 1.75.252-.963.252-2.537 0-3.5-.251-.963-.457-.175-.457 1.75" fill="#1976D2" fill-rule="evenodd"/><path fill-opacity=".548" d="M0 120.035c0 113.996.088 119.99 1.75 119.135.962-.495 5.185-1.147 9.383-1.449 14.864-1.069 19.168-6.083 20.36-23.721.279-4.125 1.241-44.438 2.139-89.584 1.91-96.125 1.88-96.6-6.641-103.77-3.52-2.962-7.546-4.191-17.491-5.338l-7-.808-.302-6.409c-.209-4.451.096-6.661 1-7.235.909-.576.623-.83-.948-.841L0 0v120.035M10 1.263c5.832 1.352 36.168 1.352 42 0C55.515.448 50.916.219 31 .219S6.485.448 10 1.263m48.16-.013c.848.688 16.528 45.243 34.845 99.013 18.316 53.77 33.508 97.557 33.76 97.306.252-.252 15.023-44.245 32.825-97.761 20.465-61.524 32.996-97.764 34.079-98.555C195.048.245 181.825 0 126 0 70.338 0 56.923.247 58.16 1.25M200 1.254c5.749 1.323 37.924 1.315 44.5-.011 3.852-.776-1.2-1.01-22-1.016-20.831-.006-25.972.229-22.5 1.027m50.75-.592c.801.324 1.25 2.617 1.25 6.386 0 6.835-1.16 7.952-8.253 7.952-6.393 0-13.941 2.547-16.969 5.726-5.093 5.349-5.079 4.841-2.858 103.836 1.134 50.566 2.334 93.952 2.666 96.415 1.432 10.61 7.482 15.877 19.27 16.778 3.654.279 7.431.914 8.394 1.412 1.662.858 1.75-5.135 1.75-119.132V0l-3.25.079c-1.787.043-2.687.306-2 .583M194.301 39.18c-.659 1.474-16.797 49.849-35.862 107.5-19.064 57.651-35.3 105.836-36.079 107.077l-1.415 2.257 67.777-.257 67.778-.257.322-2.803c.293-2.555.148-2.695-1.632-1.584-1.527.954-4.989.965-15.873.053-17.828-1.493-34.985-1.493-53.648.002-16.773 1.343-16.627 1.394-16.654-5.847-.021-5.926 1.455-6.916 11.351-7.614 12.693-.896 16.998-3.888 18.707-12.998.636-3.393-.503-64.5-3.312-177.709-.226-9.11-.42-10.145-1.46-7.82M47.966 67.583c-.019 6.555-.647 42.967-1.396 80.917-.749 37.979-.992 71.317-.541 74.154 1.709 10.743 5.353 14.011 16.749 15.024 9.378.833 10.225 1.423 10.207 7.107-.025 7.738-.015 7.734-14.151 6.376-15.595-1.497-28.894-1.492-45.084.018C2.534 252.225 1 252.587 1 254.184 1 255.918 3.646 256 59.523 256h58.523l-1.418-2.25c-1.199-1.901-29.834-85.072-59.816-173.731-4.367-12.914-8.137-23.677-8.376-23.917-.24-.239-.451 4.927-.47 11.481" fill="#1976D2" fill-rule="evenodd"/><path fill-opacity=".368" d="M0 119.437v119.437l3.25-.438c1.788-.242 6.461-.844 10.386-1.34 3.925-.495 8.338-1.688 9.808-2.651 3.009-1.972 5.936-7.221 6.94-12.445 1.29-6.717 4.597-178.091 3.575-185.294-1.133-7.99-3.829-13.773-7.686-16.491-3.733-2.629-5.88-3.21-15.396-4.169-4.994-.504-8.451-1.344-8.982-2.182C.601 11.822.824 2.576 2.2 1.2 3.133.267 3.022 0 1.7 0 .109 0 0 7.692 0 119.437M12.5 1.2c6.462 1.247 30.538 1.247 37 0C53.305.466 48.885.235 31 .235S8.695.466 12.5 1.2m46.404.185c.632.761 16.117 45.264 34.411 98.895l33.262 97.511 32.341-97.146c17.787-53.43 33.027-97.933 33.866-98.895C194.235.086 190.973 0 126.033 0 67.985 0 57.927.207 58.904 1.385M202.5 1.194c6.466 1.239 32.534 1.239 39 0 3.763-.722-1.062-.959-19.5-.959s-23.263.237-19.5.959m49.3.006c1.68 1.68 1.522 10.335-.22 12.078-.808.807-4.583 1.711-8.75 2.094-9.747.896-15.696 3.859-18.329 9.128-2.343 4.689-2.339-4.798-.04 109 .89 44 2.025 83.123 2.524 86.94 1.636 12.509 5.358 15.148 25.265 17.913l3.75.521V0h-2.7c-2.1 0-2.433.267-1.5 1.2m-92.193 143.079c-19.132 57.872-35.632 106.687-36.666 108.478l-1.882 3.257 67.721-.257 67.72-.257.346-2.452c.289-2.047.106-2.253-1.107-1.246-1.127.935-3.789.946-11.846.05-13.524-1.503-49.67-1.5-62.268.005-7.401.884-10.22.894-11.25.039-1.758-1.458-1.854-11.267-.125-12.654.688-.551 4.85-1.33 9.25-1.73 17.752-1.617 19.46-4.077 19.448-28.012-.012-21.304-3.627-169.512-4.148-170.033-.224-.225-16.061 46.941-35.193 104.812M47.382 114.11c-.485 31.015-.882 68.99-.882 84.39 0 25.067.188 28.345 1.799 31.294 2.526 4.628 6.81 6.885 14.54 7.66C73.257 238.499 73 238.31 73 244.945c0 7.711-.801 8.277-10.096 7.135-14.873-1.828-28.686-2.221-40.904-1.163-17.924 1.552-21 2.093-21 3.697C1 255.78 10.215 256 58.949 256h57.949l-1.347-3.25c-.742-1.787-15.846-45.775-33.566-97.75-17.719-51.975-32.556-95.125-32.969-95.89-.414-.764-1.149 23.986-1.634 55" fill="#1976D2" fill-rule="evenodd"/></svg>